<svg width="60" height="45" viewBox="0 0 60 45" fill="none" xmlns="http://www.w3.org/2000/svg">
<path d="M33.1973 26.0496C33.1973 12.1146 44.4363 3.42357 56.8743 0.576569C59.4213 0.875569 60.0203 4.17157 58.3733 5.22157C52.9783 7.16957 45.6343 12.1146 45.6343 19.1566C45.6343 25.4516 50.2803 27.5486 53.8773 28.4476C56.4253 29.1976 58.3733 31.5946 58.3733 35.0416C58.3733 40.1356 53.7273 44.3306 48.0333 44.3306C41.8903 44.3306 33.1973 39.0876 33.1973 26.0496ZM0.381287 26.0496C0.381287 12.1146 11.6203 3.42357 24.0573 0.576569C26.6053 0.875569 27.2033 4.17157 25.5563 5.22157C20.1613 7.16957 12.8183 12.1146 12.8183 19.1566C12.8183 25.4516 17.4643 27.5486 21.0603 28.4476C23.6073 29.1976 25.5563 31.5946 25.5563 35.0416C25.5563 40.1356 20.9113 44.3306 15.2163 44.3306C9.07229 44.3306 0.381287 39.0876 0.381287 26.0496Z" fill="#7C8D8D"/>
</svg>
