<svg width="120" height="120" viewBox="0 0 120 120" fill="none" xmlns="http://www.w3.org/2000/svg">
<g clip-path="url(#clip0_2051_356)">
<path d="M3.00554 43.773H40.3252V33.5909H3.00554V43.773ZM41.8279 46.7783H1.50277C0.672588 46.7783 0 46.1058 0 45.2757V32.088C0 31.2578 0.672588 30.5853 1.50277 30.5853H41.8279C42.6581 30.5853 43.3307 31.2578 43.3307 32.088V45.2757C43.3307 46.1058 42.6581 46.7783 41.8279 46.7783Z" fill="#E5001D"/>
<path d="M21.6658 31.8457C20.8357 31.8457 20.1631 31.1731 20.1631 30.3429V18.3676C20.1631 17.6089 20.7285 16.9693 21.4817 16.8759L93.6983 7.9363C94.522 7.83459 95.2725 8.42011 95.3742 9.24388C95.4768 10.0676 94.8913 10.8181 94.0675 10.9198L23.1686 19.6954V30.3429C23.1686 31.1731 22.496 31.8457 21.6658 31.8457Z" fill="#E5001D"/>
<path d="M59.8304 81.8394C59.0002 81.8394 58.3276 81.1668 58.3276 80.3366V65.4721C58.3276 65.1084 58.4596 64.7565 58.6997 64.4825L92.3797 25.9909V2.50298C92.3797 1.6728 93.0523 1.00023 93.8825 1.00023C94.7127 1.00023 95.3852 1.6728 95.3852 2.50298V26.5553C95.3852 26.92 95.2533 27.271 95.0132 27.5459L61.3331 66.0375V80.3366C61.3331 81.1668 60.6606 81.8394 59.8304 81.8394Z" fill="#E5001D"/>
<path d="M16.6686 107.509H105.174V83.9416H16.6686V107.509ZM106.676 110.516H15.1659C14.3357 110.516 13.6631 109.842 13.6631 109.012V82.4389C13.6631 81.6088 14.3357 80.9361 15.1659 80.9361H106.676C107.507 80.9361 108.179 81.6088 108.179 82.4389V109.012C108.179 109.842 107.507 110.516 106.676 110.516Z" fill="#E5001D"/>
<path d="M56.8459 115.588H64.9974V110.514H56.8459V115.588ZM66.5001 118.593H55.3431C54.5129 118.593 53.8403 117.921 53.8403 117.091V109.012C53.8403 108.182 54.5129 107.509 55.3431 107.509H66.5001C67.3303 107.509 68.0029 108.182 68.0029 109.012V117.091C68.0029 117.921 67.3303 118.593 66.5001 118.593Z" fill="#E5001D"/>
<path d="M4.92093 107.509H13.8056V83.9416H4.92093V107.509ZM15.3083 110.516H3.41822C2.58803 110.516 1.91455 109.842 1.91455 109.012V82.4389C1.91455 81.6088 2.58803 80.9361 3.41822 80.9361H15.3083C16.1385 80.9361 16.811 81.6088 16.811 82.4389V109.012C16.811 109.842 16.1385 110.516 15.3083 110.516Z" fill="#E5001D"/>
<path d="M108.109 107.509H116.994V83.9416H108.109V107.509ZM118.496 110.516H106.606C105.776 110.516 105.104 109.842 105.104 109.012V82.4389C105.104 81.6088 105.776 80.9361 106.606 80.9361H118.496C119.327 80.9361 120 81.6088 120 82.4389V109.012C120 109.842 119.327 110.516 118.496 110.516Z" fill="#E5001D"/>
</g>
<defs>
<clipPath id="clip0_2051_356">
<rect width="120" height="120" fill="white"/>
</clipPath>
</defs>
</svg>
