<svg width="120" height="120" viewBox="0 0 120 120" fill="none" xmlns="http://www.w3.org/2000/svg">
<g clip-path="url(#clip0_2051_329)">
<path d="M3.73215 120C2.77535 120 2 119.225 2 118.268V2.73596C2 1.77916 2.77535 1.00292 3.73215 1.00292C4.68895 1.00292 5.4643 1.77916 5.4643 2.73596V118.268C5.4643 119.225 4.68895 120 3.73215 120Z" fill="#E5001D"/>
<path d="M115.952 120H3.73215C2.77535 120 2 119.225 2 118.268C2 117.311 2.77535 116.535 3.73215 116.535H115.952C116.909 116.535 117.684 117.311 117.684 118.268C117.684 119.225 116.909 120 115.952 120Z" fill="#E5001D"/>
<path d="M19.2651 110.156H35.9759V85.426H19.2651V110.156ZM37.7089 113.62H17.5329C16.5761 113.62 15.8008 112.845 15.8008 111.888V83.6929C15.8008 82.7361 16.5761 81.9608 17.5329 81.9608H37.7089C38.6657 81.9608 39.4411 82.7361 39.4411 83.6929V111.888C39.4411 112.845 38.6657 113.62 37.7089 113.62Z" fill="#E5001D"/>
<path d="M51.4652 110.156H68.176V61.3697H51.4652V110.156ZM69.9081 113.62H49.7322C48.7754 113.62 48 112.845 48 111.888V59.6376C48 58.6808 48.7754 57.9045 49.7322 57.9045H69.9081C70.8649 57.9045 71.6412 58.6808 71.6412 59.6376V111.888C71.6412 112.845 70.8649 113.62 69.9081 113.62Z" fill="#E5001D"/>
<path d="M83.6644 110.156H100.375V34.0315H83.6644V110.156ZM102.108 113.62H81.9323C80.9755 113.62 80.1992 112.845 80.1992 111.888V32.2985C80.1992 31.3417 80.9755 30.5663 81.9323 30.5663H102.108C103.065 30.5663 103.84 31.3417 103.84 32.2985V111.888C103.84 112.845 103.065 113.62 102.108 113.62Z" fill="#E5001D"/>
<path d="M25.7359 56.4393C22.5681 56.4393 19.9916 59.0167 19.9916 62.1836C19.9916 65.3514 22.5681 67.9289 25.7359 67.9289C28.9037 67.9289 31.4802 65.3514 31.4802 62.1836C31.4802 59.0167 28.9037 56.4393 25.7359 56.4393ZM25.7359 71.394C20.658 71.394 16.5264 67.2624 16.5264 62.1836C16.5264 57.1058 20.658 52.9741 25.7359 52.9741C30.8137 52.9741 34.9454 57.1058 34.9454 62.1836C34.9454 67.2624 30.8137 71.394 25.7359 71.394Z" fill="#E5001D"/>
<path d="M32.2892 57.729C31.7846 57.729 31.2846 57.5095 30.942 57.0873C30.3393 56.3438 30.4534 55.2534 31.1969 54.6506L87.3878 9.11637C88.1313 8.5145 89.2218 8.62868 89.8245 9.37128C90.4273 10.1148 90.3131 11.2061 89.5696 11.8089L33.3787 57.3422C33.0583 57.6024 32.6724 57.729 32.2892 57.729Z" fill="#E5001D"/>
<path d="M87.3092 5.15854L92.7773 12.774L96.917 3.86982L87.3092 5.15854ZM93.0977 17.9253C92.5437 17.9253 92.0179 17.6589 91.6913 17.203L82.8111 4.83547C82.457 4.34158 82.3871 3.69723 82.6278 3.13873C82.8695 2.58022 83.3855 2.18901 83.9882 2.10758L99.5909 0.0151889C100.218 -0.0688961 100.842 0.195751 101.217 0.704687C101.592 1.21451 101.659 1.88807 101.392 2.46251L94.6697 16.9234C94.4095 17.481 93.8731 17.8598 93.2606 17.9173C93.2066 17.9226 93.1517 17.9253 93.0977 17.9253Z" fill="#E5001D"/>
</g>
<defs>
<clipPath id="clip0_2051_329">
<rect width="120" height="120" fill="white"/>
</clipPath>
</defs>
</svg>
