<svg width="120" height="120" viewBox="0 0 120 120" fill="none" xmlns="http://www.w3.org/2000/svg">
<path d="M8.03198 61.9062H17.217V41.3223H8.03198V61.9062ZM18.3781 64.2285H6.87097C6.22997 64.2285 5.70996 63.7094 5.70996 63.0674V40.1611C5.70996 39.5201 6.22997 39 6.87097 39H18.3781C19.0191 39 19.5389 39.5201 19.5389 40.1611V63.0674C19.5389 63.7094 19.0191 64.2285 18.3781 64.2285Z" fill="#E5001D"/>
<path d="M3.32202 54.6865H5.70898V48.541H3.32202V54.6865ZM6.87097 57.0088H2.16101C1.52001 57.0088 1 56.4887 1 55.8477V47.3809C1 46.7399 1.52001 46.2207 2.16101 46.2207H6.87097C7.51197 46.2207 8.03198 46.7399 8.03198 47.3809V55.8477C8.03198 56.4887 7.51197 57.0088 6.87097 57.0088Z" fill="#E5001D"/>
<path d="M10.7712 78.3857H14.4773V64.2285H10.7712V78.3857ZM15.6382 80.707H9.61023C8.96923 80.707 8.44922 80.1869 8.44922 79.5469V63.0674C8.44922 62.4264 8.96923 61.9062 9.61023 61.9062H15.6382C16.2792 61.9062 16.7992 62.4264 16.7992 63.0674V79.5469C16.7992 80.1869 16.2792 80.707 15.6382 80.707Z" fill="#E5001D"/>
<path d="M16.799 78.3857H108.644V73.7344H16.799V78.3857ZM109.804 80.707H15.6379C14.9969 80.707 14.4771 80.1869 14.4771 79.5469V72.5732C14.4771 71.9322 14.9969 71.4121 15.6379 71.4121H109.804C110.446 71.4121 110.965 71.9322 110.965 72.5732V79.5469C110.965 80.1869 110.446 80.707 109.804 80.707Z" fill="#E5001D"/>
<path d="M108.299 61.9062H117.484V41.3223H108.299V61.9062ZM118.645 64.2285H107.138C106.496 64.2285 105.977 63.7094 105.977 63.0674V40.1611C105.977 39.5201 106.496 39 107.138 39H118.645C119.286 39 119.806 39.5201 119.806 40.1611V63.0674C119.806 63.7094 119.286 64.2285 118.645 64.2285Z" fill="#E5001D"/>
<path d="M111.038 78.3857H114.744V64.2285H111.038V78.3857ZM115.905 80.707H109.877C109.236 80.707 108.716 80.1869 108.716 79.5469V63.0674C108.716 62.4264 109.236 61.9062 109.877 61.9062H115.905C116.546 61.9062 117.066 62.4264 117.066 63.0674V79.5469C117.066 80.1869 116.546 80.707 115.905 80.707Z" fill="#E5001D"/>
</svg>
