<svg width="120" height="120" viewBox="0 0 120 120" fill="none" xmlns="http://www.w3.org/2000/svg">
<path d="M92.2617 88.3124H26.8357V92.0575H92.2617V88.3124ZM61.0906 85.3387H92.0967C92.1077 85.3387 92.2617 85.1857 92.2617 85.1737V30.6522C92.2617 30.6402 92.1077 30.4872 92.0967 30.4872H61.0906V85.3387ZM58.0067 30.4872H27.0007C26.9897 30.4872 26.8357 30.6402 26.8357 30.6522V85.1737C26.8357 85.1857 26.9897 85.3387 27.0007 85.3387H58.0067V30.4872ZM95.2357 92.0575H101.679C101.691 92.0575 101.844 91.9045 101.844 91.8925V27.2382C101.844 27.2262 101.691 27.0721 101.679 27.0721H95.2357V92.0575ZM23.8617 27.0721H17.4187C17.4067 27.0721 17.2527 27.2262 17.2527 27.2382V91.8925C17.2527 91.9045 17.4067 92.0575 17.4187 92.0575H23.8617V27.0721ZM26.8357 27.5135H92.2617V25.1454C92.2617 24.8074 93.1016 24.0366 93.5256 24.0966C96.6706 24.3316 100.244 23.7936 103.337 24.0936C104.097 24.1676 104.628 24.6445 104.792 25.3915L104.818 92.0575H106.966C107.175 92.0575 107.724 92.5305 107.843 92.7225C108.45 93.7105 107.858 94.8531 106.748 95.0341L12.0727 94.9794C11.1187 94.5934 10.6856 93.6505 11.2546 92.7225C11.3726 92.5305 11.9227 92.0575 12.1317 92.0575H14.2797L14.3057 25.3915C14.4687 24.6445 15.0007 24.1676 15.7607 24.0936C18.8537 23.7936 22.4267 24.3316 25.5717 24.0966C25.9787 23.9966 26.8357 24.8804 26.8357 25.1454V27.5135Z" fill="#E5001D"/>
<path d="M49.2604 52.8043C47.6244 54.4623 45.8854 56.0373 44.2674 57.7163C44.0754 58.1813 44.4954 58.2183 44.6684 58.4183C46.8544 60.9453 49.5734 63.2063 51.8664 65.6503C53.0454 67.1103 51.2014 68.9343 49.7424 67.7743L40.8764 58.9073C40.3724 58.3123 40.3754 57.5093 40.8764 56.9183L49.9274 47.9063C51.2644 47.1213 52.7064 48.4913 52.0814 49.8403C51.8914 50.2523 49.7654 52.2913 49.2604 52.8043Z" fill="#E5001D"/>
<path d="M67.5467 65.361L74.9407 57.969C74.8957 57.82 74.8017 57.689 74.6977 57.575C72.6857 55.364 70.2497 53.322 68.1787 51.155C67.9467 50.913 67.1687 50.121 67.0527 49.913C66.3367 48.628 67.6977 47.194 69.0217 47.834C72.1847 50.741 75.1337 53.916 78.2207 56.919C78.6187 57.394 78.7227 58.012 78.4387 58.575C75.4897 61.768 72.2947 64.771 69.2357 67.876C67.4757 68.923 65.9097 66.616 67.5467 65.361Z" fill="#E5001D"/>
</svg>
