<svg width="120" height="120" viewBox="0 0 120 120" fill="none" xmlns="http://www.w3.org/2000/svg">
<path d="M111.296 102.964C111.378 103.455 111.018 104.291 110.623 104.779C110.365 105.095 110.107 105.255 109.857 105.255H69.2295V92.225H73.2023C74.2215 92.225 75.9175 91.0642 76.1735 89.9706C76.5479 77.7882 76.4911 65.3442 76.4367 53.3058C76.4031 45.9018 76.3679 38.2442 76.4327 30.7266C76.4151 29.2818 74.7495 27.4978 73.4143 27.4978H69.2295V14.4674H109.857C110.132 14.4674 110.413 14.6346 110.673 14.9514C111.047 15.409 111.386 16.225 111.294 16.7618L111.296 102.964ZM69.2295 30.5698H72.7783C72.9463 30.5698 73.3615 30.9842 73.3615 31.1522V88.941H69.2295V30.5698ZM66.1671 89.3754C66.1671 89.3754 66.1511 90.8258 66.1263 92.9522C66.0679 98.2338 65.9583 107.68 65.9087 109.411L65.9039 109.581L65.7479 109.648C64.0175 110.381 62.1695 110.745 60.3767 110.745C58.3487 110.745 56.3879 110.279 54.7455 109.351L54.6095 109.275V88.3562H66.1671V89.3754ZM66.1583 85.3394H54.6095V34.173H66.1583V85.3394ZM54.6095 31.0994V10.097L54.7863 10.0338C59.0535 8.50901 63.0455 8.62902 66.0255 10.373L66.1583 10.4482V31.0994H54.6095ZM51.5375 81.7378H47.3535C45.9863 81.7378 44.5343 83.4562 44.3503 84.8114C43.9615 87.673 44.1439 91.029 44.3207 94.2754C44.4919 97.397 44.6663 100.623 44.3383 103.436C44.1999 104.6 43.4623 105.266 42.3103 105.266C42.2983 105.266 42.2871 105.266 42.2751 105.264H11.5471C11.4959 105.267 11.4447 105.271 11.3935 105.271C10.9431 105.271 10.5399 105.124 10.2239 104.842C9.7775 104.444 9.5015 103.773 9.4695 102.999L9.4735 16.737C9.4879 15.361 10.1783 14.5114 11.3191 14.4634L42.2783 14.4586H42.3119C43.4623 14.4586 44.1999 15.1226 44.3383 16.2866C44.6863 19.2682 44.5327 22.6242 44.3823 25.8674C44.2375 28.9834 44.0887 32.2034 44.3839 35.1018C44.5551 36.4722 46.2207 37.9866 47.5655 37.9866H51.5375V81.7378ZM110.049 11.3954L69.2103 11.397L69.2295 11.1146C69.3407 9.36582 68.6791 8.29381 67.6239 7.58021H67.6231C59.9399 3.13061 53.2111 7.56741 53.1919 7.58021C52.2751 8.20901 51.5375 9.07061 51.5375 9.96661V34.7026H47.4063V15.2618C47.4063 14.5922 46.7319 13.5506 45.7247 12.6674C44.7215 11.7842 43.6559 11.293 42.9479 11.385L42.9127 11.3866L10.7207 11.3954C8.3567 11.793 6.6223 13.6866 6.3999 16.1138V103.609C6.6207 105.976 8.2055 107.774 10.5367 108.307L42.9039 108.335C45.0503 108.177 47.1039 106.283 47.3903 104.194C47.7791 101.366 47.5951 98.0394 47.4183 94.821C47.2471 91.737 47.0727 88.545 47.3975 85.7738C47.4295 85.5106 47.5103 84.8098 47.9895 84.8098H51.5375V109.758C51.5375 110.084 52.3783 113.683 60.2903 113.683H60.3751C63.8951 113.683 66.9391 112.943 68.1431 111.789C69.0287 110.943 69.2847 109.59 69.2279 108.606L69.2135 108.325L110.047 108.327C112.626 107.899 113.815 105.918 114.357 104.311V15.4122C113.53 13.0274 112.121 11.7138 110.049 11.3954Z" fill="#E5001D"/>
<path d="M20.7574 87.0281C20.3014 87.1889 19.8958 87.2537 19.539 87.2537C18.583 87.2537 17.9662 86.7897 17.6414 86.4489C16.815 85.5761 16.5566 84.1137 17.0302 82.9705C17.4574 81.9321 18.4046 81.3153 19.6254 81.2801C19.655 81.2801 19.687 81.2785 19.7166 81.2785C21.383 81.2785 22.3822 82.5697 22.6102 83.7905C22.819 84.9081 22.4582 86.4273 20.7574 87.0281ZM19.2598 78.1873C16.3678 78.4153 13.4038 80.5665 13.7326 84.7545C13.9606 87.6585 16.087 90.6385 20.2118 90.3169C22.4638 90.1401 24.191 89.0225 25.0782 87.1673C26.0566 85.1185 25.8414 82.4705 24.5406 80.5793C23.363 78.8617 21.483 78.0121 19.2598 78.1873Z" fill="#E5001D"/>
<path d="M37.1051 60.7603C37.0923 62.2355 36.0979 63.7331 34.2227 63.7475H34.1995C33.1235 63.7475 32.2123 63.2299 31.6947 62.3267C31.1275 61.3379 31.1227 60.0435 31.6803 59.1019C32.1947 58.2379 33.1027 57.7803 34.2259 57.8019C36.2059 57.8459 37.1051 59.3491 37.1051 60.7355V60.7603ZM33.6675 54.6699C31.4315 54.8467 29.7059 55.9915 28.8099 57.8939C27.8283 59.9779 28.0435 62.6259 29.3451 64.4819C30.5451 66.1939 32.4931 67.0147 34.8267 66.7979C37.6211 66.5379 40.4643 64.3675 40.1083 60.2163C39.8587 57.3211 37.7427 54.3523 33.6675 54.6699Z" fill="#E5001D"/>
<path d="M31.35 23.7567C31.6412 22.6807 32.3956 21.9215 33.3652 21.7255C33.6372 21.6703 33.8988 21.6439 34.1516 21.6439C35.1444 21.6439 35.974 22.0607 36.538 22.8591C37.3076 23.9511 37.49 25.5847 36.158 26.7719C35.614 27.2559 34.8684 27.5647 34.0916 27.5647C33.4252 27.5647 32.7364 27.3375 32.1324 26.7967C31.3468 26.0935 31.0388 24.8991 31.35 23.7567ZM32.9996 30.5535C35.766 30.9231 37.9684 30.0311 39.2012 28.0471C40.5036 25.9503 40.4396 23.0399 39.0476 20.9695C37.734 19.0143 35.5236 18.1895 32.83 18.6463C30.47 19.0479 28.1196 21.0855 28.1844 24.7423C28.2308 27.3231 29.7372 30.1207 32.9996 30.5535Z" fill="#E5001D"/>
<path d="M36.9475 96.1517C36.6275 97.1181 35.8667 97.7893 34.8579 97.9973C34.5963 98.0509 34.3491 98.0757 34.1139 98.0757C32.5211 98.0757 31.5475 96.9181 31.2955 95.6981C30.9067 93.8165 32.0419 92.5533 33.3635 92.2797C33.6515 92.2197 33.9307 92.1901 34.1987 92.1901C35.0699 92.1901 35.8171 92.5045 36.3539 93.1061C37.0643 93.9029 37.2955 95.0989 36.9475 96.1517ZM32.8267 89.2013C29.6027 89.7029 28.1723 92.5285 28.1827 95.1061C28.1947 97.7221 29.7003 100.582 33.0403 101.071C35.7091 101.461 37.8731 100.591 39.1363 98.6173C40.4771 96.5205 40.4787 93.6221 39.1379 91.5661C37.8587 89.6069 35.6171 88.7669 32.8267 89.2013Z" fill="#E5001D"/>
<path d="M22.3116 36.8522C21.8308 37.8306 20.9092 38.4098 19.786 38.4418C19.7524 38.4434 19.7204 38.4434 19.6884 38.4434C17.9276 38.4434 16.8852 37.0322 16.7636 35.6106C16.6468 34.2658 17.3532 32.7914 19.1924 32.5266C19.3956 32.4962 19.5932 32.4818 19.7836 32.4818C20.7556 32.4818 21.5572 32.8618 22.078 33.577C22.7356 34.4818 22.8292 35.7978 22.3116 36.8522ZM18.6324 29.4578C16.3764 29.7866 14.7572 31.0722 14.0732 33.0754C13.2892 35.377 13.9092 38.1946 15.582 39.9274C17.074 41.4746 19.1748 41.9394 21.4916 41.2378C25.1412 40.1354 26.1636 36.773 25.5724 34.1162C24.9612 31.3818 22.578 28.8802 18.6324 29.4578Z" fill="#E5001D"/>
<path d="M102.115 87.0276C101.66 87.1884 101.255 87.2532 100.895 87.2532C99.9403 87.2532 99.3235 86.7892 99.0003 86.4484C98.1739 85.5756 97.9163 84.1132 98.3875 82.97C98.8171 81.9316 99.7635 81.3148 100.983 81.2796C101.014 81.2796 101.046 81.278 101.076 81.278C102.742 81.278 103.742 82.5692 103.969 83.79C104.178 84.9076 103.815 86.4268 102.115 87.0276ZM100.619 78.1868C97.7267 78.4148 94.7627 80.566 95.0915 84.754C95.3179 87.658 97.4427 90.6348 101.571 90.3164C103.823 90.1396 105.55 89.022 106.437 87.1668C107.415 85.118 107.2 82.47 105.9 80.5788C104.72 78.8612 102.844 78.0116 100.619 78.1868Z" fill="#E5001D"/>
<path d="M84.4191 58.6905C85.0359 58.0529 85.7831 57.7841 86.5087 57.7841C87.2207 57.7841 87.9151 58.0417 88.4463 58.4593C89.4695 59.2577 90.0679 60.7625 89.0967 62.3225C88.5079 63.2657 87.6743 63.7721 86.7239 63.7721C86.6303 63.7721 86.5351 63.7665 86.4383 63.7577C85.2615 63.6345 84.1487 62.7497 83.7335 61.6065C83.3631 60.5873 83.6119 59.5225 84.4191 58.6905ZM87.5583 66.7841C91.3959 66.2809 92.8215 62.9809 92.5215 60.1281C92.2231 57.2825 90.1207 54.3609 86.2119 54.6705C83.8535 54.8569 82.0679 56.0305 81.1831 57.9737C80.2295 60.0697 80.5103 62.7249 81.8823 64.5793C83.1647 66.3145 85.1783 67.0969 87.5583 66.7841Z" fill="#E5001D"/>
<path d="M89.0594 96.7871C88.5522 97.6247 87.6954 98.0783 86.6626 98.0783C86.4802 98.0783 86.293 98.0639 86.1026 98.0359C84.493 97.7975 83.725 96.4423 83.6754 95.2063C83.617 93.7687 84.4458 92.5639 85.6874 92.2775C86.0442 92.1943 86.369 92.1591 86.6626 92.1591C87.9186 92.1591 88.6106 92.8183 88.9378 93.2703C89.649 94.2543 89.7002 95.7343 89.0594 96.7871ZM85.161 89.1991C81.6586 89.7919 80.2522 93.1927 80.7098 96.0911C81.3506 100.149 84.6946 101.516 87.7274 101.07C89.8226 100.763 91.393 99.5231 92.149 97.5767C92.9842 95.4271 92.6066 92.8303 91.209 91.1151C89.8522 89.4495 87.7042 88.7695 85.161 89.1991Z" fill="#E5001D"/>
<path d="M103.669 36.8522C103.188 37.8306 102.268 38.4098 101.143 38.4418C101.111 38.4434 101.079 38.4434 101.047 38.4434C99.2865 38.4434 98.2441 37.0322 98.1225 35.6106C98.0057 34.2658 98.7105 32.7914 100.55 32.5266C101.79 32.3458 102.814 32.7202 103.438 33.577C104.095 34.4818 104.188 35.7978 103.669 36.8522ZM101.11 29.373C100.751 29.373 100.38 29.4002 99.9913 29.4578C98.8641 29.6226 97.8945 30.025 97.1225 30.6394C96.3489 31.2514 95.7729 32.0738 95.4321 33.0754C94.6465 35.377 95.2665 38.1946 96.9409 39.9274C98.4337 41.4746 100.534 41.9394 102.851 41.2378C106.499 40.1354 107.523 36.773 106.93 34.1162C106.38 31.6506 104.39 29.373 101.11 29.373Z" fill="#E5001D"/>
<path d="M87.4026 27.4432C87.1146 27.5032 86.8354 27.5336 86.5674 27.5336C85.6874 27.5336 84.937 27.2152 84.4018 26.604C83.6882 25.7896 83.469 24.5744 83.8418 23.508C84.1738 22.556 84.9298 21.9072 85.917 21.7272C86.173 21.6816 86.417 21.6584 86.6466 21.6584C88.2786 21.6584 89.2346 22.768 89.473 23.9968C89.8402 25.884 88.6794 27.18 87.4026 27.4432ZM86.6698 18.4472C85.2706 18.4472 83.7834 18.9928 82.4034 20.3408C80.3122 22.3824 79.3762 25.9256 82.2586 28.8808C83.8202 30.48 85.793 31.0768 87.8162 30.5608C90.0346 29.9936 91.937 28.148 92.5498 25.9664C93.1098 23.9672 92.5338 21.9584 90.925 20.312C89.8434 19.2064 88.3178 18.4472 86.6698 18.4472Z" fill="#E5001D"/>
</svg>
