<svg width="120" height="120" viewBox="0 0 120 120" fill="none" xmlns="http://www.w3.org/2000/svg">
<path d="M34 27.1867L59.704 41.7447V100.105L34 86.2087V27.1867Z" stroke="#E5001D" stroke-width="2.5" stroke-linecap="round" stroke-linejoin="round"/>
<path d="M85.5604 27.1867L59.8564 41.7447V100.105L85.5604 86.2087V27.1867Z" stroke="#E5001D" stroke-width="2.5" stroke-linecap="round" stroke-linejoin="round"/>
<path d="M34 86.2092L59.546 72.8762L85.561 86.2092" stroke="#E5001D" stroke-width="2.5" stroke-linecap="round" stroke-linejoin="round"/>
<path d="M65.3291 59.8966V68.6736" stroke="#E5001D" stroke-width="2.5" stroke-linecap="round" stroke-linejoin="round"/>
<path d="M48.3643 57.1965V24.3015C48.3643 24.3015 48.6713 18.2565 53.1803 19.0765C53.1803 19.0765 56.9723 19.6905 56.6653 25.6345" stroke="#E5001D" stroke-width="2.5" stroke-linecap="round" stroke-linejoin="round"/>
<path d="M44.4985 59.3264L52.7655 56.0404" stroke="#E5001D" stroke-width="2.5" stroke-linecap="round" stroke-linejoin="round"/>
<path d="M61.6032 26.5695C61.6032 27.7465 59.4002 28.7005 56.6822 28.7005C53.9642 28.7005 51.7612 27.7465 51.7612 26.5695C51.7612 25.3925 53.9642 24.4385 56.6822 24.4385C59.4002 24.4385 61.6032 25.3925 61.6032 26.5695Z" stroke="#E5001D" stroke-width="2.5" stroke-linecap="round" stroke-linejoin="round"/>
</svg>
