<svg width="120" height="120" viewBox="0 0 120 120" fill="none" xmlns="http://www.w3.org/2000/svg">
<path d="M46.857 74.2885C44.844 76.7165 46.555 80.0925 49.614 80.1945L84.541 80.2015C85.396 80.1085 86.06 79.8015 86.187 78.8695C86.3 78.0355 86.315 75.1195 86.189 74.3075C86.114 73.8195 85.595 73.1825 85.102 73.1035L49.265 73.0935C48.418 73.1675 47.396 73.6385 46.857 74.2885ZM53.334 70.9225C47.826 66.7675 40.394 71.9915 42.223 78.6545C43.528 83.4065 49.627 85.4045 53.448 82.2585H48.696C46.328 82.2585 44.092 79.3465 43.862 77.1315C43.559 74.2245 46.121 70.9225 49.154 70.9225H53.334ZM65.013 63.0205H33.181V91.2465C33.181 91.6605 34.035 92.4795 34.495 92.4515L63.987 92.3965C64.332 92.3085 65.013 91.5595 65.013 91.2465V82.2585H56.483C50.453 90.0765 37.927 84.3675 40.012 74.6035C41.653 66.9195 51.709 64.7805 56.483 70.9225H65.013V63.0205ZM33.181 28.3835V60.8455H65.013V28.3835C65.013 27.9705 64.159 27.1505 63.699 27.1785L34.206 27.2325C33.81 27.3505 33.252 27.9795 33.181 28.3835ZM67.189 70.9225H85.109C86.633 70.9225 88.134 72.5865 88.262 74.0665C88.356 75.1595 88.407 78.7715 88.18 79.7185C87.943 80.7035 86.491 82.2585 85.453 82.2585H67.189V91.3605C67.189 92.7735 65.164 94.6935 63.695 94.6225L34.608 94.6285C32.562 94.4675 31.147 92.9415 31 90.9075L31.001 28.6075C31.187 26.6765 32.558 25.2285 34.499 25.0065L63.701 25.0015C65.152 24.9385 67.189 26.8835 67.189 28.2685V70.9225Z" fill="#E5001D"/>
<path d="M48.8433 49.6508C51.9183 49.3138 52.2293 54.1138 49.1433 54.1938C46.3603 54.2668 46.0143 49.9608 48.8433 49.6508Z" fill="#E5001D"/>
<path d="M48.4934 33.7338C51.7584 33.0668 52.3524 37.7048 49.4704 38.1448C46.4904 38.6018 45.9694 34.2488 48.4934 33.7338Z" fill="#E5001D"/>
<path d="M40.5937 33.7348C43.8977 33.1718 44.2907 37.8808 41.3547 38.1618C38.4517 38.4388 38.0137 34.1748 40.5937 33.7348Z" fill="#E5001D"/>
<path d="M56.5085 33.7339C59.7585 33.0649 60.2865 37.6969 57.4865 38.1459C54.5015 38.6249 53.9255 34.2649 56.5085 33.7339Z" fill="#E5001D"/>
<path d="M55.435 53.4779C53.797 51.7199 55.72 48.8319 58.056 49.8819C59.468 50.5169 59.738 52.4509 58.663 53.5219C57.818 54.3639 56.25 54.3519 55.435 53.4779Z" fill="#E5001D"/>
<path d="M40.4778 41.7485C43.4568 41.1405 44.4068 45.0595 41.9618 45.9805C38.7558 47.1895 37.7558 42.3055 40.4778 41.7485Z" fill="#E5001D"/>
<path d="M56.5104 41.7504C60.7034 41.0374 59.7654 47.4304 56.2314 45.9824C54.1844 45.1444 54.5554 42.0834 56.5104 41.7504Z" fill="#E5001D"/>
<path d="M48.4934 41.7485C51.9194 41.0485 52.2824 45.9675 49.2524 46.1815C46.4954 46.3755 46.0164 42.2555 48.4934 41.7485Z" fill="#E5001D"/>
<path d="M40.9432 49.6479C41.7822 49.5649 42.7152 50.1429 43.0922 50.8769C44.2162 53.0599 41.5042 55.1829 39.6532 53.6279C38.1332 52.3519 38.9272 49.8489 40.9432 49.6479Z" fill="#E5001D"/>
</svg>
