<svg width="120" height="120" viewBox="0 0 120 120" fill="none" xmlns="http://www.w3.org/2000/svg">
<path d="M112.698 104.893C112.782 105.402 112.41 106.268 112 106.773C111.734 107.101 111.466 107.267 111.206 107.267H69.1067V93.7647H73.2235C74.2796 93.7647 76.0371 92.5619 76.3023 91.4286C76.6903 78.8047 76.6314 65.9097 76.5751 53.435C76.5403 45.7627 76.5038 37.8276 76.5709 30.0375C76.5527 28.5403 74.8267 26.6917 73.4431 26.6917H69.1067V13.189H111.206C111.491 13.189 111.782 13.3623 112.052 13.6906C112.44 14.1648 112.791 15.0103 112.696 15.5666L112.698 104.893ZM69.1067 29.875H72.7841C72.9582 29.875 73.3884 30.3044 73.3884 30.4785V90.3617H69.1067V29.875ZM65.9333 90.8119C65.9333 90.8119 65.9167 92.3148 65.891 94.5183C65.8305 99.9913 65.7169 109.78 65.6655 111.574L65.6605 111.75L65.4989 111.819C63.7058 112.579 61.7908 112.956 59.933 112.956C57.8315 112.956 55.7997 112.473 54.0977 111.512L53.9568 111.433V89.7557H65.9333V90.8119ZM65.9242 86.6296H53.9568V33.6088H65.9242V86.6296ZM53.9568 30.4238V8.66025L54.14 8.59475C58.5619 7.01468 62.6986 7.13904 65.7866 8.94625L65.9242 9.02417V30.4238H53.9568ZM50.7735 82.8975H46.4378C45.0211 82.8975 43.5165 84.6781 43.3258 86.0824C42.9229 89.0478 43.1119 92.5254 43.2951 95.8894C43.4725 99.1242 43.6533 102.468 43.3134 105.382C43.17 106.588 42.4056 107.278 41.2119 107.278C41.1994 107.278 41.1878 107.278 41.1754 107.276H9.33374C9.28069 107.28 9.22763 107.284 9.17458 107.284C8.70785 107.284 8.29004 107.131 7.96259 106.839C7.50001 106.427 7.21401 105.731 7.18085 104.93L7.18499 15.5409C7.19991 14.115 7.91533 13.2346 9.09748 13.1849L41.1787 13.1799H41.2135C42.4056 13.1799 43.17 13.868 43.3134 15.0742C43.674 18.1638 43.5148 21.6414 43.359 25.0022C43.2089 28.2311 43.0547 31.5678 43.3606 34.5713C43.538 35.9913 45.264 37.5606 46.6575 37.5606H50.7735V82.8975ZM111.405 10.0057L69.0868 10.0074L69.1067 9.71473C69.2219 7.90255 68.5363 6.79168 67.4429 6.05222H67.4421C59.4804 1.44136 52.5077 6.03896 52.4878 6.05222C51.5378 6.70381 50.7735 7.59664 50.7735 8.52511V34.1576H46.4926V14.0122C46.4926 13.3184 45.7937 12.239 44.75 11.3238C43.7105 10.4086 42.6062 9.89958 41.8726 9.99492L41.8361 9.99658L8.47739 10.0057C6.02771 10.4177 4.23046 12.3799 4 14.8951V105.561C4.2288 108.014 5.87104 109.877 8.28672 110.43L41.827 110.459C44.0512 110.295 46.1792 108.333 46.476 106.167C46.8789 103.237 46.6882 99.7899 46.505 96.4548C46.3276 93.259 46.1469 89.9514 46.4834 87.0797C46.5166 86.807 46.6003 86.0808 47.0969 86.0808H50.7735V111.933C50.7735 112.271 51.6447 116 59.8435 116H59.9314C63.5789 116 66.7333 115.233 67.9809 114.038C68.8986 113.161 69.1639 111.759 69.105 110.739L69.0901 110.448L111.404 110.45C114.076 110.007 115.308 107.954 115.869 106.288V14.1681C115.013 11.6968 113.552 10.3356 111.405 10.0057Z" fill="#E5001D"/>
<path d="M18.8786 88.3788C18.4061 88.5454 17.9858 88.6125 17.616 88.6125C16.6254 88.6125 15.9862 88.1317 15.6497 87.7786C14.7933 86.8741 14.5256 85.3587 15.0163 84.1741C15.459 83.0981 16.4405 82.4589 17.7056 82.4224C17.7363 82.4224 17.7694 82.4208 17.8001 82.4208C19.5269 82.4208 20.5623 83.7588 20.7986 85.0238C21.0149 86.1819 20.641 87.7562 18.8786 88.3788ZM17.3267 79.2176C14.3299 79.4538 11.2585 81.683 11.5992 86.0228C11.8355 89.032 14.0389 92.12 18.3132 91.7868C20.6468 91.6035 22.4366 90.4454 23.356 88.523C24.3699 86.4 24.1469 83.656 22.7989 81.6962C21.5786 79.9164 19.6305 79.036 17.3267 79.2176Z" fill="#E5001D"/>
<path d="M35.8176 61.1604C35.8043 62.689 34.7739 64.2409 32.8307 64.2558H32.8066C31.6917 64.2558 30.7474 63.7195 30.2111 62.7835C29.6233 61.7589 29.6183 60.4176 30.1961 59.4418C30.7292 58.5465 31.6701 58.0723 32.834 58.0947C34.8858 58.1403 35.8176 59.698 35.8176 61.1347V61.1604ZM32.2554 54.8492C29.9383 55.0324 28.1502 56.2187 27.2217 58.1901C26.2045 60.3496 26.4275 63.0936 27.7763 65.0168C29.0198 66.7909 31.0384 67.6414 33.4566 67.4168C36.3523 67.1473 39.2985 64.8983 38.9296 60.5966C38.671 57.5965 36.4783 54.5201 32.2554 54.8492Z" fill="#E5001D"/>
<path d="M29.854 22.816C30.1557 21.701 30.9374 20.9143 31.9422 20.7112C32.224 20.654 32.4951 20.6266 32.7571 20.6266C33.7859 20.6266 34.6455 21.0585 35.23 21.8859C36.0275 23.0174 36.2165 24.7103 34.8362 25.9405C34.2725 26.442 33.4999 26.762 32.6949 26.762C32.0044 26.762 31.2906 26.5266 30.6647 25.9662C29.8506 25.2375 29.5315 23.9998 29.854 22.816ZM31.5633 29.8591C34.43 30.2421 36.7122 29.3178 37.9897 27.2619C39.3393 25.0891 39.273 22.0732 37.8305 19.9278C36.4693 17.9017 34.1788 17.047 31.3876 17.5204C28.9421 17.9365 26.5065 20.048 26.5736 23.8373C26.6217 26.5117 28.1827 29.4106 31.5633 29.8591Z" fill="#E5001D"/>
<path d="M35.6543 97.8329C35.3227 98.8343 34.5343 99.5298 33.489 99.7453C33.2179 99.8009 32.9617 99.8266 32.718 99.8266C31.0675 99.8266 30.0586 98.627 29.7975 97.3628C29.3946 95.413 30.5709 94.104 31.9404 93.8205C32.2388 93.7584 32.5282 93.7277 32.8059 93.7277C33.7086 93.7277 34.4829 94.0535 35.0392 94.6769C35.7753 95.5026 36.0149 96.7419 35.6543 97.8329ZM31.3841 90.6306C28.0433 91.1503 26.5611 94.0783 26.5718 96.7494C26.5843 99.4602 28.1444 102.424 31.6055 102.93C34.371 103.335 36.6134 102.433 37.9224 100.388C39.3118 98.215 39.3135 95.2116 37.9241 93.0811C36.5985 91.0509 34.2757 90.1804 31.3841 90.6306Z" fill="#E5001D"/>
<path d="M20.4881 36.3858C19.9899 37.3997 19.0349 37.9999 17.871 38.033C17.8362 38.0347 17.803 38.0347 17.7699 38.0347C15.9452 38.0347 14.8651 36.5723 14.7391 35.0992C14.618 33.7057 15.35 32.1778 17.2559 31.9034C17.4664 31.8719 17.6712 31.857 17.8685 31.857C18.8757 31.857 19.7064 32.2508 20.2461 32.9919C20.9275 33.9295 21.0245 35.2932 20.4881 36.3858ZM16.6756 28.7234C14.3378 29.0641 12.6599 30.3963 11.9511 32.4721C11.1387 34.8571 11.7812 37.7769 13.5146 39.5725C15.0607 41.1757 17.2376 41.6574 19.6384 40.9303C23.4203 39.788 24.4797 36.3037 23.8671 33.5506C23.2338 30.7171 20.7642 28.1249 16.6756 28.7234Z" fill="#E5001D"/>
<path d="M103.184 88.3787C102.713 88.5454 102.292 88.6125 101.92 88.6125C100.93 88.6125 100.291 88.1317 99.9563 87.7785C99.1 86.8741 98.833 85.3587 99.3213 84.1741C99.7665 83.098 100.747 82.4589 102.011 82.4224C102.043 82.4224 102.076 82.4207 102.108 82.4207C103.834 82.4207 104.87 83.7587 105.105 85.0238C105.322 86.1819 104.946 87.7561 103.184 88.3787ZM101.633 79.2175C98.6366 79.4538 95.5651 81.6829 95.9059 86.0227C96.1405 89.032 98.3423 92.1167 102.62 91.7867C104.953 91.6035 106.743 90.4454 107.663 88.523C108.676 86.3999 108.453 83.6559 107.106 81.6962C105.884 79.9164 103.94 79.036 101.633 79.2175Z" fill="#E5001D"/>
<path d="M84.8473 59.0139C85.4864 58.3532 86.2607 58.0747 87.0126 58.0747C87.7504 58.0747 88.47 58.3416 89.0204 58.7743C90.0807 59.6017 90.7008 61.161 89.6944 62.7775C89.0842 63.7549 88.2204 64.2797 87.2356 64.2797C87.1386 64.2797 87.0399 64.2739 86.9396 64.2648C85.7202 64.1371 84.5671 63.2202 84.1368 62.0356C83.753 60.9795 84.0108 59.8761 84.8473 59.0139ZM88.1002 67.4008C92.0769 66.8794 93.5542 63.4598 93.2433 60.5036C92.9341 57.5549 90.7555 54.5274 86.705 54.8482C84.2612 55.0414 82.4108 56.2575 81.494 58.2711C80.5058 60.4431 80.7968 63.1945 82.2185 65.1161C83.5474 66.9142 85.634 67.725 88.1002 67.4008Z" fill="#E5001D"/>
<path d="M89.6561 98.4912C89.1305 99.3592 88.2426 99.8292 87.1724 99.8292C86.9834 99.8292 86.7894 99.8143 86.5921 99.7853C84.9242 99.5383 84.1283 98.1339 84.0769 96.8532C84.0164 95.3634 84.8753 94.115 86.1619 93.8182C86.5316 93.732 86.8682 93.6955 87.1724 93.6955C88.4739 93.6955 89.191 94.3786 89.5301 94.847C90.267 95.8666 90.3201 97.4003 89.6561 98.4912ZM85.6164 90.6282C81.987 91.2425 80.5297 94.7666 81.0039 97.77C81.6679 101.975 85.1331 103.391 88.2758 102.93C90.4469 102.611 92.0742 101.326 92.8576 99.3095C93.7231 97.082 93.3318 94.391 91.8836 92.6137C90.4776 90.8877 88.2518 90.1831 85.6164 90.6282Z" fill="#E5001D"/>
<path d="M104.793 36.3858C104.295 37.3997 103.342 37.9999 102.176 38.033C102.143 38.0347 102.11 38.0347 102.077 38.0347C100.252 38.0347 99.1717 36.5723 99.0457 35.0992C98.9247 33.7057 99.6551 32.1778 101.561 31.9034C102.846 31.7161 103.907 32.1041 104.554 32.9919C105.234 33.9295 105.331 35.2932 104.793 36.3858ZM102.141 28.6355C101.769 28.6355 101.385 28.6637 100.982 28.7234C99.8142 28.8942 98.8095 29.3112 98.0095 29.9478C97.2079 30.582 96.611 31.4342 96.2578 32.4721C95.4438 34.8571 96.0862 37.7769 97.8213 39.5725C99.3682 41.1757 101.544 41.6574 103.946 40.9303C107.725 39.788 108.787 36.3037 108.172 33.5506C107.603 30.9957 105.54 28.6355 102.141 28.6355Z" fill="#E5001D"/>
<path d="M87.938 26.6357C87.6396 26.6979 87.3503 26.7294 87.0726 26.7294C86.1607 26.7294 85.3831 26.3995 84.8285 25.7661C84.089 24.9222 83.8619 23.6629 84.2482 22.5579C84.5922 21.5714 85.3756 20.8991 86.3986 20.7126C86.6639 20.6653 86.9167 20.6413 87.1546 20.6413C88.8458 20.6413 89.8364 21.7911 90.0835 23.0644C90.464 25.02 89.2611 26.363 87.938 26.6357ZM87.1787 17.3137C85.7288 17.3137 84.1877 17.8791 82.7577 19.2759C80.5907 21.3915 79.6207 25.0631 82.6076 28.1254C84.2258 29.7826 86.2701 30.401 88.3666 29.8663C90.6654 29.2785 92.6368 27.3661 93.2718 25.1054C93.8521 23.0337 93.2552 20.9521 91.5881 19.2461C90.4673 18.1004 88.8864 17.3137 87.1787 17.3137Z" fill="#E5001D"/>
</svg>
