<svg width="120" height="120" viewBox="0 0 120 120" fill="none" xmlns="http://www.w3.org/2000/svg">
<g clip-path="url(#clip0_2051_380)">
<path d="M77.3759 84.2214H85.2818C85.3308 83.5959 85.1988 82.8945 85.2943 82.2824C85.5878 80.3889 88.6449 80.1685 88.9608 82.7C89.0705 83.5816 88.7564 85.1066 88.8796 85.6857C89.2722 87.5372 93.0949 90.7799 94.759 91.6856C106.817 98.2414 119.94 85.6054 114.746 73.1362C110.449 62.8219 96.466 61.1961 89.9147 70.271C89.2097 71.2481 88.7636 73.1148 87.426 73.3263L50.3736 73.4414C49.301 75.2046 47.9813 76.8794 47.138 78.7524C48.4506 80.3987 49.9417 82.1111 51.5318 83.5736C52.1885 83.703 57.5335 79.096 58.7015 78.888C59.2771 78.7863 59.8954 78.897 60.3362 79.2887L64.2321 83.7735L71.7186 79.1816C74.6641 77.7798 75.5814 82.725 77.3759 84.2214ZM21.2859 33.9841C13.3827 41.8927 25.71 53.6204 33.1278 45.5182C33.8247 44.7562 34.3699 43.2883 35.4746 43.1411L89.058 43.1295C94.6002 42.3103 94.5913 34.9014 89.0786 34.1198C70.3855 34.0082 51.6308 34.3313 32.9761 33.9565C29.6112 30.9886 24.558 30.7102 21.2859 33.9841ZM50.3727 69.8471V46.6434H36.9228C36.7524 46.6434 35.6013 48.2023 35.2854 48.4967C29.6772 53.7346 20.4471 52.4033 16.7324 45.6824C11.4633 36.1471 20.7327 25.1128 31.0666 28.6793C31.8313 28.9435 34.071 30.4211 34.253 30.4211H50.3727V8.34619C50.3727 6.61332 47.0327 3.68118 45.1437 3.92389L8.99787 3.93371C6.10142 4.22728 3.83673 6.67042 3.75017 9.56955V110.412C3.87509 113.357 6.09517 115.68 8.99787 116.048L45.1455 116.059C47.7573 115.82 49.9221 113.807 50.3736 111.225L50.3682 88.0244C48.5086 85.4144 45.7799 83.139 43.8079 80.6218C43.1208 79.7447 42.6747 79.2816 43.0923 78.0689C44.8778 75.9523 46.1485 72.5865 47.9063 70.5637C48.8432 69.4831 50.2585 69.9613 50.3727 69.8471ZM54.0686 30.4211H89.0803C96.1716 30.4211 99.6489 40.1634 93.889 44.8802C93.259 45.3968 91.0292 46.6434 90.3126 46.6434H54.0686V69.8471H86.1027C87.7454 66.3484 91.3236 63.3475 94.9366 61.9448C110.051 56.0796 124.348 71.4854 117.967 86.2077C112.08 99.795 93.2421 100.686 85.9581 87.9138L75.8286 87.8174C74.4821 87.5016 73.2766 84.1857 72.221 83.2086C71.8292 83.1149 66.2264 86.8627 65.2948 87.3356C64.9718 87.4998 64.5069 87.8103 64.1848 87.8745C61.8969 88.3296 59.7027 83.1283 58.7247 83.2247C58.4454 83.2515 54.1936 86.1461 54.1025 86.412L54.0436 111.405C53.3218 116.427 49.4696 119.418 44.5289 119.755C33.1457 120.532 20.8844 119.158 9.40923 119.744C4.84415 119.4 1.38911 116.688 0.316548 112.203C-0.105516 77.4354 -0.105516 42.5432 0.316548 7.77779C1.49529 3.16006 4.89947 0.591979 9.61445 0.237731C20.9843 0.779365 33.0332 -0.492182 44.3237 0.22613C48.4952 0.49204 54.0686 3.64727 54.0686 8.34619V30.4211Z" fill="#E5001D"/>
<path d="M25.6772 69.4852C22.0963 70.084 20.268 74.9382 22.2007 77.9979C22.5755 78.5922 23.1698 78.9295 23.4732 79.3944C24.5404 81.03 23.4152 86.3187 23.98 88.5397C24.7394 91.5263 29.4195 91.5513 30.1521 88.7449C30.7768 86.3535 29.4972 81.4556 30.7714 79.5077C31.4469 78.4762 32.2393 78.2335 32.6604 76.6728C33.857 72.2389 30.1075 68.7437 25.6772 69.4852ZM25.8913 65.7973C33.2868 64.9059 38.879 72.5691 35.4926 79.3007C35.1339 80.0154 34.0703 81.038 33.9552 81.6644C33.609 83.5401 34.1452 86.3937 33.9427 88.429C33.1601 96.3216 20.9229 96.9328 20.1895 87.402C20.0538 85.6388 20.483 83.0314 20.1823 81.4538C20.094 80.9907 18.9643 79.7504 18.6502 79.0838C15.9751 73.3936 19.6362 66.5513 25.8913 65.7973Z" fill="#E5001D"/>
<path d="M99.9326 76.4901C98.1034 78.1721 99.043 81.6905 101.606 81.9618C103.138 82.1233 104.539 81.6833 105.146 80.1628C106.484 76.8167 102.466 74.1611 99.9326 76.4901ZM106.73 83.9007C100.712 89.508 91.6716 81.2345 96.7863 74.6778C102.734 67.0512 114.038 77.0906 106.73 83.9007Z" fill="#E5001D"/>
</g>
<defs>
<clipPath id="clip0_2051_380">
<rect width="120" height="120" fill="white"/>
</clipPath>
</defs>
</svg>
