<svg width="120" height="120" viewBox="0 0 120 120" fill="none" xmlns="http://www.w3.org/2000/svg">
<path d="M81.5936 59.217C81.1596 57.8495 82.0491 54.7907 81.8966 53.8298C81.8685 53.6538 81.4615 53.2503 81.3937 53.2503H72.5922C70.477 53.2503 66.9555 55.2472 66.4837 57.517C65.2479 63.4668 70.5101 65.2764 74.3845 68.1669C72.3927 70.1857 68.9769 69.6272 66.3909 69.1615V75.526H77.3928C79.3458 75.526 82.3103 72.7717 82.701 70.861C84.0756 64.1395 75.7208 63.0694 74.9665 60.0264C74.8583 59.5898 75.2521 59.217 75.3924 59.217H81.5936ZM55.9893 53.2503C55.7486 53.0111 50.1721 53.4278 49.1882 53.2503V75.526H56.3892V63.7917C56.3892 61.4847 61.1042 59.4944 63.1903 60.0127V53.2503C59.6913 53.1157 58.0479 54.2628 55.9934 56.8304C55.8776 56.2066 56.1388 53.3988 55.9893 53.2503ZM33.0807 53.3447C20.1696 55.5211 22.2787 77.1087 36.5394 75.8851C50.4644 74.6905 49.2505 50.6195 33.0807 53.3447ZM95.2014 67.5707C95.6936 67.9384 105.261 62.6104 106.151 61.956C107.771 60.7645 104.564 56.6687 103.396 55.6384C92.7312 46.2325 78.3971 61.858 87.5863 72.153C93.2586 78.5088 101.358 76.033 106.824 70.9279C106.893 69.9689 104.038 67.3376 103.355 66.394C102.787 66.2746 101.601 67.8752 100.93 68.2995C90.6323 74.814 87.6097 56.7947 97.7058 58.5136C98.2531 58.6064 100.117 59.1955 99.4078 60.0234C98.6835 60.868 94.4516 62.4737 93.1948 63.2015L95.2014 67.5707ZM12.3821 53.2503C3.11846 52.2445 -2.50389 61.1996 1.10323 69.437C4.38033 76.92 15.3838 78.3864 19.9187 71.2849C20.8536 69.8205 21.9839 65.8472 21.9839 64.1895V45.4934C21.9839 45.4516 21.4259 44.8972 21.3836 44.8972H14.7824V66.1782C14.7824 67.7441 12.5596 69.1967 10.982 69.1977C4.82868 69.2023 5.43411 58.4626 12.3821 60.0127V53.2503ZM99.4787 44.1851C97.081 44.9012 96.7724 49.2923 99.9852 49.9136C105.017 50.8872 104.525 42.6769 99.4787 44.1851ZM90.286 44.18C86.9094 44.9094 88.0785 50.4874 91.6172 49.9023C95.3366 49.2872 94.9494 43.1727 90.286 44.18Z" fill="white"/>
<path d="M120 75.5267C116.406 75.5477 112.02 75.0422 110.236 71.5111C110.04 71.1229 109.198 68.7726 109.198 68.5655V47.2844H115.599V53.2511C115.599 53.4699 119.464 53.094 120 53.2511V58.422C118.129 58.6827 115.867 57.4759 115.58 59.7951C115.129 63.4318 114.769 69.1082 120 67.9687V75.5267Z" fill="black"/>
<path d="M12.3821 53.2514V60.0137C5.43411 58.4637 4.82867 69.2034 10.982 69.1988C12.5596 69.1978 14.7824 67.7452 14.7824 66.1793V44.8982H21.3836C21.4259 44.8982 21.9839 45.4527 21.9839 45.4945V64.1906C21.9839 65.8483 20.8536 69.8221 19.9187 71.286C15.3838 78.3875 4.38034 76.9211 1.10323 69.438C-2.50389 61.2006 3.11846 52.2456 12.3821 53.2514Z" fill="black"/>
<path d="M95.2013 67.5713L93.1947 63.2022C94.4515 62.4749 98.6834 60.8687 99.4077 60.0241C100.118 59.1967 98.2529 58.6076 97.7056 58.5143C87.6101 56.7959 90.6322 74.8152 100.93 68.3002C101.601 67.8764 102.787 66.2758 103.355 66.3947C104.038 67.3383 106.893 69.9701 106.824 70.929C101.358 76.0342 93.259 78.5095 87.5861 72.1542C78.3975 61.8587 92.7311 46.2332 103.396 55.6391C104.564 56.6694 107.771 60.7657 106.151 61.9572C105.261 62.6116 95.694 67.9391 95.2013 67.5713Z" fill="black"/>
<path d="M33.8691 59.7014C29.7677 60.6353 29.7142 68.6411 34.578 69.1726C41.8989 69.9714 41.3363 58.0009 33.8691 59.7014ZM33.081 53.3461C49.2503 50.6204 50.4648 74.6914 36.5392 75.8865C22.2791 77.1096 20.1695 55.522 33.081 53.3461Z" fill="black"/>
<path d="M81.5937 59.2173H75.3924C75.2522 59.2173 74.8584 59.5902 74.9665 60.0268C75.7209 63.0698 84.0756 64.1399 82.701 70.8614C82.3103 72.7721 79.3459 75.5264 77.3929 75.5264H66.391V69.1619C68.9769 69.6276 72.3928 70.1861 74.3845 68.1673C70.5102 65.2768 65.2479 63.4671 66.4838 57.5173C66.9556 55.2476 70.477 53.2507 72.5922 53.2507H81.3937C81.4616 53.2507 81.8686 53.6541 81.8967 53.8301C82.0492 54.7911 81.1596 57.8499 81.5937 59.2173Z" fill="black"/>
<path d="M55.9893 53.2507C56.1388 53.3996 55.8776 56.2075 55.9934 56.8308C58.0479 54.2632 59.6913 53.116 63.1903 53.2507V60.013C61.1042 59.4948 56.3892 61.485 56.3892 63.792V75.5264H49.1882V53.2507C50.1721 53.4282 55.7486 53.0115 55.9893 53.2507Z" fill="black"/>
<path d="M99.4788 44.1857C104.525 42.678 105.017 50.8879 99.9853 49.9147C96.7725 49.2929 97.0811 44.9024 99.4788 44.1857Z" fill="black"/>
<path d="M90.286 44.1801C94.9494 43.1727 95.3366 49.2873 91.6172 49.9024C88.0785 50.4874 86.9094 44.9095 90.286 44.1801Z" fill="black"/>
<path d="M33.8689 59.7014C41.3361 58.0009 41.8987 69.9714 34.5779 69.1726C29.714 68.6411 29.7676 60.6353 33.8689 59.7014Z" fill="white"/>
</svg>
