<svg width="446" height="44" viewBox="0 0 446 44" fill="none" xmlns="http://www.w3.org/2000/svg">
<path d="M31.1952 21.3425C31.5562 22.8215 32.4612 24.8535 33.9082 27.4345C33.5462 27.3855 33.3412 27.3615 33.2912 27.3615L31.2942 27.1885C30.3892 27.1065 29.7312 27.0645 29.3202 27.0645C29.2542 27.0645 29.0902 27.0725 28.8272 27.0895L32.9462 38.0155L38.4462 42.8745H24.1652L23.6972 42.2085H36.7942L32.3542 38.2865L27.9642 26.6695C28.5222 26.5225 29.1642 26.4475 29.8872 26.4475C30.7762 26.4475 31.7622 26.5225 32.8472 26.6695L32.5522 26.1275C31.4992 24.1875 30.7922 22.4365 30.4302 20.8735L31.1952 21.3425ZM17.8022 17.1245L15.0892 24.2785C15.2372 24.4425 15.3192 24.5405 15.3352 24.5735L16.3472 25.7075C16.8892 26.3005 17.5802 27.2205 18.4192 28.4705L18.6652 28.8405C19.3722 27.9525 20.2112 27.0725 21.1812 26.2005L17.8022 17.1245ZM16.6922 14.2635L12.7702 24.6225C14.0202 25.9045 15.0972 27.1715 16.0022 28.4205L17.1362 29.9995C17.1522 30.0165 17.2342 30.1225 17.3822 30.3205C17.5302 30.1725 17.6132 30.0825 17.6292 30.0485L17.9752 29.6295C18.0242 29.5645 18.1142 29.4565 18.2462 29.3095C17.0942 27.5325 15.7552 25.9305 14.2262 24.4995L17.3822 16.1625L16.6922 14.2635ZM23.8942 9.2065L21.3292 12.1175L25.3742 22.8715L26.3602 22.3285L22.7102 12.6115L25.3252 9.6025L25.9662 9.8725L23.4752 12.7595L26.9282 21.9595C27.1252 21.8115 27.2402 21.7215 27.2732 21.6885L28.0872 20.9965C28.5802 20.6025 28.8932 20.3225 29.0252 20.1575C29.4512 22.0325 30.1102 23.7105 30.9972 25.1905C30.5212 25.1565 30.1752 25.1415 29.9622 25.1415C28.3992 25.1415 27.2572 25.3875 26.5332 25.8805L30.9972 37.9905L34.6972 40.8525H22.2422L25.6452 37.9905L22.9082 30.7885C21.0982 32.6135 19.7092 34.3495 18.7392 35.9925L18.1722 35.8455C19.1422 34.2345 20.5892 32.4335 22.5132 30.4435L22.7102 30.1965L22.2422 29.1125C20.2852 30.7395 18.6652 32.6305 17.3822 34.7845L16.9392 34.0705C16.0832 32.7045 14.9902 31.1515 13.6582 29.4075L13.4122 29.1125C12.1452 31.9235 11.5132 34.2085 11.5132 35.9685C11.5132 37.0045 11.6892 37.8805 12.0432 38.5955C12.3962 39.3105 13.2472 40.5065 14.5962 42.1845C14.7102 42.3315 14.8922 42.5625 15.1382 42.8745H1.81921L1.32621 42.2085H13.8802L13.4612 41.6905C12.3762 40.3755 11.6642 39.3525 11.3272 38.6195C10.9902 37.8885 10.8222 37.0295 10.8222 36.0425C10.8222 34.3655 11.5042 31.8655 12.8692 28.5445L11.7842 27.4095C11.5702 27.9365 11.2982 28.7085 10.9702 29.7285L10.1562 32.2435C9.71221 33.5925 9.49021 34.7105 9.49021 35.5985C9.49021 36.5195 9.64621 37.2835 9.95821 37.8925C10.2712 38.5005 10.9292 39.3305 11.9322 40.3835C12.0302 40.4825 12.1782 40.6395 12.3762 40.8525H0.0432129C2.39521 39.6355 4.25721 37.9995 5.63021 35.9445C7.00221 33.8885 8.36321 30.7145 9.71221 26.4235L9.81021 26.0775C8.93921 25.3385 7.68121 24.8855 6.03721 24.7215C6.94121 23.3735 7.64021 21.9675 8.13321 20.5035C8.36321 20.7175 8.50321 20.8495 8.55221 20.8985L9.66221 21.9345C10.0402 22.2965 10.4932 22.6655 11.0192 23.0445L11.4632 21.9595L11.1672 21.7125C10.3452 20.9885 9.65421 20.4055 9.09521 19.9605L8.87321 19.7885L9.26821 19.2455C10.1392 19.8215 10.9782 20.4885 11.7842 21.2435L15.1382 12.0195L12.5242 9.2065H23.8942Z" fill="white"/>
<path d="M47.942 35.8699C48.846 36.7089 49.299 37.7619 49.299 39.0269C49.299 40.1449 48.883 41.1239 48.053 41.9619C47.223 42.8009 46.257 43.2199 45.155 43.2199C43.823 43.2199 42.746 42.7259 41.924 41.7399L42.097 41.5669C43.149 42.1929 44.103 42.5049 44.958 42.5049C45.994 42.5049 46.877 42.1469 47.609 41.4319C48.341 40.7169 48.707 39.8659 48.707 38.8789C48.707 37.9419 48.378 36.9969 47.72 36.0429L47.942 35.8699ZM43.897 34.8339C44.785 34.8339 45.541 35.1459 46.167 35.7709C46.791 36.3959 47.104 37.1519 47.104 38.0409C47.104 38.9119 46.791 39.6599 46.167 40.2849C45.541 40.9099 44.785 41.2229 43.897 41.2229C43.026 41.2229 42.277 40.9099 41.653 40.2849C41.028 39.6599 40.716 38.9119 40.716 38.0409C40.716 37.1519 41.028 36.3959 41.653 35.7709C42.277 35.1459 43.026 34.8339 43.897 34.8339Z" fill="white"/>
<path d="M93.3009 10.9343L93.1279 11.1563C91.1219 13.8523 89.7819 16.1133 89.1079 17.9383L88.6889 17.4203C89.7899 14.8723 91.2119 12.5373 92.9549 10.4153L93.3009 10.9343ZM86.0489 19.1473V30.0483L85.4329 29.7283V18.8273L86.0489 19.1473ZM96.2609 40.6553L94.9779 42.8743H68.0439L67.6499 42.2083H94.6579L95.4959 40.6553C93.1279 38.4683 91.4589 36.1323 90.4889 33.6503L91.2779 33.9463C92.1819 36.0503 93.7119 38.1563 95.8659 40.2603L96.2609 40.6553ZM92.1169 9.2063L91.7219 9.6753C90.0449 11.7323 88.7129 14.0913 87.7269 16.7543C87.5619 16.3763 87.4389 16.0973 87.3559 15.9153C86.4519 13.9433 85.4819 12.6683 84.4459 12.0933C83.4099 11.5173 81.5519 11.2303 78.8719 11.2303C77.6389 11.2303 76.1589 11.2713 74.4329 11.3533V22.6993H76.0109V12.6613C77.2599 12.5453 78.4529 12.4883 79.5869 12.4883C81.6749 12.4883 83.2129 12.7093 84.1999 13.1543C85.1859 13.5973 86.0659 14.4603 86.8389 15.7443C86.6079 15.5793 86.4439 15.4553 86.3449 15.3733C85.0139 14.3213 84.0519 13.6963 83.4599 13.4983C82.8669 13.3013 81.6999 13.2033 79.9569 13.2033C79.4309 13.2033 78.4939 13.2363 77.1459 13.3013L76.6269 13.3273V22.6993H81.1659L84.3479 18.3323V28.9633L81.1659 24.8443H74.4329V38.6813H76.0109V26.0033H81.3629L82.0039 26.6453H76.6269V38.6813C79.9819 38.6813 82.3659 38.4433 83.7799 37.9663C85.1939 37.4903 86.3039 36.5523 87.1099 35.1553L88.4169 32.9113C88.4659 32.8113 88.5649 32.6303 88.7129 32.3673C89.1399 34.1763 89.6709 35.6233 90.3039 36.7083C90.9369 37.7933 91.9849 39.0603 93.4489 40.5063H65.7999L69.5489 37.6463V26.6453C68.1679 26.8103 66.9179 27.2373 65.7999 27.9273L65.4539 27.4103C66.4569 26.6863 67.8219 26.2183 69.5489 26.0033V24.8443C69.2689 24.8123 69.0719 24.7953 68.9569 24.7953C67.2789 24.7953 65.7509 25.4123 64.3689 26.6453C65.1249 24.0143 66.8519 22.6993 69.5489 22.6993V12.1673L65.7999 9.2063H92.1169Z" fill="white"/>
<path d="M121.468 10.5144L121.246 10.8844C120.571 12.0194 119.996 13.1044 119.519 14.1404C118.368 16.5574 117.719 17.9064 117.571 18.1854L117.447 18.3584L116.856 18.1114L116.954 17.8894C117.431 16.8044 118.121 15.3904 119.026 13.6474L120.703 10.3914L120.826 10.1944L121.468 10.5144ZM114.266 15.4224C112.457 13.4984 110.517 12.5364 108.445 12.5364C107.195 12.5364 106.159 12.8994 105.337 13.6224C104.515 14.3464 104.104 15.2674 104.104 16.3844C104.104 17.6014 104.934 18.8514 106.595 20.1334L106.792 20.2564L106.669 20.4534C104.499 19.4844 103.413 18.0784 103.413 16.2374C103.413 14.9534 103.873 13.9104 104.794 13.1044C105.715 12.2984 106.916 11.8964 108.396 11.8964C109.809 11.8964 111.047 12.1964 112.108 12.7964C113.168 13.3964 113.945 14.2394 114.438 15.3244L114.266 15.4224ZM102.377 32.3184C102.986 35.2784 104.613 37.3744 107.261 38.6084V38.8054C104.203 37.9164 102.352 35.7954 101.711 32.4414L102.377 32.3184ZM99.294 24.3274L100.133 24.7954C100.676 25.7654 102.262 26.5714 104.893 27.2124L108.864 28.1994C111.561 28.8734 113.357 29.4534 114.253 29.9384C115.15 30.4234 115.786 31.1594 116.165 32.1454L115.992 32.2434C115.252 31.3894 114.451 30.7644 113.587 30.3694C112.724 29.9754 111.067 29.4914 108.617 28.9144C105.066 28.0924 102.681 27.3814 101.465 26.7814C100.248 26.1814 99.524 25.3634 99.294 24.3274ZM119.939 25.2144C122.174 26.9094 123.293 29.2274 123.293 32.1694C123.293 35.3114 122.076 37.9704 119.643 40.1494C117.209 42.3284 114.249 43.4164 110.763 43.4164C108.987 43.4164 107.384 43.2364 105.954 42.8744L102.007 41.9124C101.086 41.6824 100.1 41.5674 99.048 41.5674C98.111 41.5674 97.247 41.7564 96.458 42.1344L96.162 41.4194C97.017 41.0254 97.888 40.8274 98.776 40.8274C99.763 40.8274 100.889 40.9754 102.155 41.2714L105.954 42.1844C107.466 42.5454 109.061 42.7264 110.739 42.7264C114.027 42.7264 116.826 41.6784 119.137 39.5814C121.447 37.4854 122.602 34.9494 122.602 31.9724C122.602 29.4564 121.715 27.2534 119.939 25.3634V25.2144ZM119.939 9.4784C119.083 10.6294 118.401 11.8304 117.891 13.0794C116.888 15.5464 116.222 17.0594 115.894 17.6184L115.77 17.7664C115.704 17.5854 115.655 17.4454 115.622 17.3464C115.162 15.8674 114.784 14.8394 114.488 14.2634C114.192 13.6884 113.748 13.1374 113.156 12.6114C111.659 11.2794 109.957 10.6134 108.05 10.6134C106.29 10.6134 104.827 11.1024 103.66 12.0804C102.492 13.0594 101.909 14.2884 101.909 15.7684C101.909 18.5314 103.988 20.4134 108.149 21.4164L112.317 22.4274C118.253 23.8584 121.221 26.9914 121.221 31.8254C121.221 34.5224 120.205 36.7864 118.175 38.6194C116.144 40.4534 113.632 41.3694 110.64 41.3694C108.765 41.3694 106.669 41.0824 104.351 40.5064L101.465 39.7914C100.297 39.5124 99.335 39.3714 98.579 39.3714C97.576 39.3714 96.54 39.6934 95.471 40.3334L95.274 39.9894C97.313 36.9134 98.743 33.9874 99.566 31.2074L100.01 31.3314C100.355 33.9124 101.391 35.9194 103.117 37.3504C104.844 38.7804 107.104 39.4954 109.9 39.4954C112.103 39.4954 113.855 38.9864 115.154 37.9664C116.452 36.9474 117.102 35.5744 117.102 33.8474C117.102 31.8584 116.197 30.2134 114.389 28.9144C113.09 27.9934 110.426 27.1384 106.398 26.3494C103.29 25.7414 101.037 24.7304 99.639 23.3164C98.242 21.9014 97.543 19.9364 97.543 17.4204C97.543 14.8234 98.476 12.7134 100.343 11.0944C102.209 9.4754 104.638 8.6644 107.631 8.6644C109.555 8.6644 111.799 9.0094 114.364 9.7014C115.564 10.0304 116.452 10.1944 117.028 10.1944C117.833 10.1944 118.714 9.9144 119.667 9.3554L119.939 9.4784Z" fill="white"/>
<path d="M137.302 10.5398L134.885 12.9808V31.3068L134.86 33.0098L135.625 36.1418C136.003 36.7668 136.718 37.5218 137.771 38.4098L137.82 38.6328C136.439 38.0728 135.485 37.2598 134.959 36.1898C134.433 35.1218 134.169 33.4698 134.169 31.2328V12.7338L136.957 10.0208L137.302 10.5398ZM153.951 10.8848L150.596 13.6718V28.9878C150.596 34.0038 150.201 37.2758 149.412 38.8058C147.801 41.8968 144.652 43.4418 139.966 43.4418C135.921 43.4418 132.879 42.4308 130.84 40.4078L131.037 40.5068L131.9 40.9998C133.923 42.1848 136.521 42.7758 139.695 42.7758C144.233 42.7758 147.242 41.3458 148.722 38.4838C149.511 36.9388 149.906 33.8308 149.906 29.1608V13.3758L153.581 10.3668L153.951 10.8848ZM153.112 9.2068L148.697 12.7338V28.6678C148.697 31.5948 148.602 33.6998 148.413 34.9818C148.224 36.2648 147.85 37.3168 147.291 38.1398C145.877 40.2438 143.131 41.2958 139.053 41.2958C134.745 41.2958 131.736 40.2438 130.026 38.1398C128.661 36.4778 127.979 33.2968 127.979 28.5938V12.2168L124.624 9.2068H136.266L132.912 12.4878V28.6188L132.961 32.4168C132.961 34.8668 133.471 36.6058 134.49 37.6338C135.51 38.6618 137.228 39.1748 139.645 39.1748C142.309 39.1748 144.142 38.3938 145.146 36.8318C145.951 35.5648 146.354 32.8518 146.354 28.6918L146.453 12.7338L142.605 9.2068H153.112Z" fill="white"/>
<path d="M183.5 10.7127C181.148 13.4577 179.668 15.9737 179.06 18.2597L178.542 17.9137C179.167 15.3327 180.671 12.7917 183.056 10.2927L183.5 10.7127ZM175.879 19.4917V30.1477L175.237 29.7777V19.1227L175.879 19.4917ZM171.463 26.9417H166.407V37.4977L170.748 42.8747H156.467L155.851 42.2087H169.367L165.791 37.7937V26.2757H170.748L171.463 26.9417ZM156.023 9.2067H181.625C180.606 10.5557 179.878 11.6157 179.442 12.3897C179.007 13.1617 178.452 14.4037 177.778 16.1127L177.58 16.6077C176.495 14.3707 175.422 12.9237 174.361 12.2667C173.301 11.6087 171.513 11.2787 168.997 11.2787L167.591 11.3047L165.198 11.2787L164.286 11.2547V22.7977H165.791V12.6107L166.506 12.5867C167.525 12.5367 168.61 12.5127 169.762 12.5127C173.116 12.5127 175.213 13.3847 176.051 15.1267C175.245 14.3547 174.369 13.8317 173.424 13.5617C172.478 13.2897 171.019 13.1537 169.046 13.1537C168.339 13.1537 167.459 13.1947 166.407 13.2767V22.7977H170.132L174.078 18.6297V28.9637L169.934 24.8697H164.286V37.3007L167.443 40.5067H155.333L159.353 37.3007V26.6947C158.087 26.6947 156.977 27.1717 156.023 28.1247L155.554 27.6077C156.508 26.5557 157.774 26.0287 159.353 26.0287V24.8697C159.008 24.8367 158.761 24.8197 158.613 24.8197C157.084 24.8197 155.76 25.4447 154.642 26.6947L154.469 26.3007C155.209 24.1627 156.837 22.9947 159.353 22.7977V12.3897L156.023 9.2067Z" fill="white"/>
<path d="M213.467 21.3425C213.828 22.8215 214.733 24.8535 216.18 27.4345C215.818 27.3855 215.613 27.3615 215.563 27.3615L213.566 27.1885C212.661 27.1065 212.003 27.0645 211.592 27.0645C211.526 27.0645 211.362 27.0725 211.099 27.0895L215.218 38.0155L220.718 42.8745H206.437L205.969 42.2085H219.066L214.626 38.2865L210.236 26.6695C210.794 26.5225 211.436 26.4475 212.159 26.4475C213.048 26.4475 214.034 26.5225 215.119 26.6695L214.824 26.1275C213.771 24.1875 213.064 22.4365 212.702 20.8735L213.467 21.3425ZM200.074 17.1245L197.361 24.2785C197.509 24.4425 197.591 24.5405 197.607 24.5735L198.619 25.7075C199.161 26.3005 199.852 27.2205 200.691 28.4705L200.937 28.8405C201.644 27.9525 202.483 27.0725 203.453 26.2005L200.074 17.1245ZM198.964 14.2635L195.042 24.6225C196.292 25.9045 197.369 27.1715 198.273 28.4205L199.408 29.9995C199.424 30.0165 199.506 30.1225 199.654 30.3205C199.802 30.1725 199.885 30.0825 199.901 30.0485L200.247 29.6295C200.296 29.5645 200.386 29.4565 200.518 29.3095C199.366 27.5325 198.027 25.9305 196.498 24.4995L199.654 16.1625L198.964 14.2635ZM206.166 9.2065L203.601 12.1175L207.646 22.8715L208.632 22.3285L204.982 12.6115L207.597 9.6025L208.238 9.8725L205.747 12.7595L209.2 21.9595C209.397 21.8115 209.512 21.7215 209.545 21.6885L210.359 20.9965C210.852 20.6025 211.165 20.3225 211.297 20.1575C211.723 22.0325 212.382 23.7105 213.269 25.1905C212.793 25.1565 212.447 25.1415 212.234 25.1415C210.671 25.1415 209.529 25.3875 208.805 25.8805L213.269 37.9905L216.969 40.8525H204.514L207.917 37.9905L205.18 30.7885C203.37 32.6135 201.981 34.3495 201.011 35.9925L200.444 35.8455C201.414 34.2345 202.861 32.4335 204.785 30.4435L204.982 30.1965L204.514 29.1125C202.557 30.7395 200.937 32.6305 199.654 34.7845L199.211 34.0705C198.355 32.7045 197.262 31.1515 195.93 29.4075L195.684 29.1125C194.417 31.9235 193.785 34.2085 193.785 35.9685C193.785 37.0045 193.961 37.8805 194.315 38.5955C194.668 39.3105 195.519 40.5065 196.868 42.1845C196.982 42.3315 197.164 42.5625 197.41 42.8745H184.091L183.598 42.2085H196.152L195.733 41.6905C194.648 40.3755 193.936 39.3525 193.599 38.6195C193.262 37.8885 193.094 37.0295 193.094 36.0425C193.094 34.3655 193.776 31.8655 195.141 28.5445L194.056 27.4095C193.842 27.9365 193.57 28.7085 193.242 29.7285L192.428 32.2435C191.984 33.5925 191.762 34.7105 191.762 35.5985C191.762 36.5195 191.918 37.2835 192.23 37.8925C192.543 38.5005 193.201 39.3305 194.204 40.3835C194.302 40.4825 194.45 40.6395 194.648 40.8525H182.315C184.667 39.6355 186.529 37.9995 187.902 35.9445C189.274 33.8885 190.635 30.7145 191.984 26.4235L192.082 26.0775C191.211 25.3385 189.953 24.8855 188.309 24.7215C189.213 23.3735 189.912 21.9675 190.405 20.5035C190.635 20.7175 190.775 20.8495 190.824 20.8985L191.934 21.9345C192.312 22.2965 192.765 22.6655 193.291 23.0445L193.735 21.9595L193.439 21.7125C192.617 20.9885 191.926 20.4055 191.367 19.9605L191.145 19.7885L191.54 19.2455C192.411 19.8215 193.25 20.4885 194.056 21.2435L197.41 12.0195L194.796 9.2065H206.166Z" fill="white"/>
<path d="M249.724 40.655L248.614 42.875H222.864L222.247 42.209H248.343L249.058 40.655C247.249 38.435 245.802 35.961 244.717 33.231L244.618 32.96L245.407 33.256L245.58 33.675C246.682 36.108 247.997 38.353 249.527 40.408L249.724 40.655ZM221.557 9.207H233.346L229.869 12.587V38.953H230.066L230.954 39.027H231.176V12.833L233.84 10.145L234.185 10.687L231.793 13.13V39.027C232.532 39.093 233.239 39.126 233.914 39.126C236.528 39.126 238.505 38.546 239.846 37.386C241.186 36.227 242.086 34.316 242.546 31.652C244.092 36.141 245.679 39.208 247.307 40.852H221.557L224.96 38.065V12.34L221.557 9.207Z" fill="white"/>
<path d="M277.373 40.655L276.263 42.875H250.513L249.896 42.209H275.992L276.707 40.655C274.898 38.435 273.451 35.961 272.366 33.231L272.267 32.96L273.056 33.256L273.229 33.675C274.331 36.108 275.646 38.353 277.176 40.408L277.373 40.655ZM249.206 9.207H260.995L257.518 12.587V38.953H257.715L258.603 39.027H258.825V12.833L261.489 10.145L261.834 10.687L259.442 13.13V39.027C260.181 39.093 260.888 39.126 261.563 39.126C264.177 39.126 266.154 38.546 267.495 37.386C268.835 36.227 269.735 34.316 270.195 31.652C271.741 36.141 273.328 39.208 274.956 40.852H249.206L252.609 38.065V12.34L249.206 9.207Z" fill="white"/>
<path d="M312.446 2.0056V3.01661L312.199 3.2636C310.818 4.5786 309.63 5.8946 308.636 7.2096C307.64 8.5256 306.165 10.7366 304.208 13.8446L295.28 27.9026V37.5716L299.67 42.8746H284.23L283.934 42.2086H298.363L294.614 37.5716V27.7306L303.715 13.3756L305.145 11.1076C307.694 7.04561 310.128 4.0116 312.446 2.0056ZM311.336 0.525604L311.484 0.723602L311.237 0.993603C308.294 4.0526 305.869 7.1596 303.962 10.3176C303.221 11.5176 302.695 12.3726 302.383 12.8826L293.208 27.5586V37.5716L296.784 40.8526H284.772L288.324 37.5716V27.5586L282.404 18.4566L281.122 16.4096C279.954 14.5846 278.996 13.2526 278.248 12.4136C277.5 11.5746 276.394 10.5806 274.931 9.4296L274.659 9.2066H287.116L284.057 12.3896L292.27 24.7716L293.06 23.5136L285.734 12.3896L288.324 9.9226L288.842 10.3176L286.598 12.3896L293.43 22.9216L298.955 14.2146C300.549 11.6826 301.347 9.7906 301.347 8.5416C301.347 7.4896 300.648 6.28861 299.251 4.94061C304.035 3.78961 307.965 2.3666 311.04 0.673603L311.336 0.525604Z" fill="white"/>
<path d="M357.682 39.0759C357.336 40.1289 356.674 41.0159 355.696 41.7399C354.718 42.4639 353.686 42.8249 352.601 42.8249C351.072 42.8249 349.765 42.3649 348.679 41.4439V41.2469C349.765 41.8889 350.883 42.2089 352.034 42.2089C354.105 42.2089 355.75 41.1479 356.967 39.0269L357.065 38.8539L357.682 39.0759ZM353.267 28.9389C351.392 30.8959 350.085 32.5979 349.345 34.0449L349.271 34.2419L349.468 34.4649C350.866 36.0759 352.148 36.8819 353.316 36.8819C353.563 36.8819 353.859 36.8319 354.204 36.7329V36.9299C353.776 37.1779 353.333 37.3009 352.872 37.3009C351.343 37.3009 349.945 36.2809 348.679 34.2419C349.879 32.0219 351.252 30.1319 352.798 28.5689L353.267 28.9389ZM340.589 17.9139C342.365 16.9939 343.253 15.5789 343.253 13.6719C343.253 12.6359 342.944 11.7719 342.328 11.0819C341.712 10.3909 340.943 10.0459 340.022 10.0459C338.18 10.0459 337.259 11.1229 337.259 13.2769C337.259 14.9869 337.744 16.8119 338.715 18.7529C338.829 18.6869 338.912 18.6459 338.961 18.6299L339.603 18.3829C339.652 18.3669 339.766 18.3169 339.948 18.2339C339.142 16.3279 338.739 14.8139 338.739 13.6959C338.739 12.0529 339.397 11.2299 340.713 11.2299C341.239 11.2299 341.797 11.5019 342.39 12.0439L342.217 12.2909L342.02 12.1679C341.576 11.9039 341.164 11.7719 340.786 11.7719C339.766 11.7719 339.257 12.4469 339.257 13.7949C339.257 14.9629 339.701 16.3359 340.589 17.9139ZM336.026 23.9569C333.066 25.6009 331.587 27.9769 331.587 31.0849C331.587 32.7789 332.014 34.2219 332.869 35.4139C333.724 36.6059 334.932 37.4399 336.495 37.9169V38.2379C334.851 38.0079 333.514 37.2509 332.487 35.9689C331.459 34.6859 330.945 33.1399 330.945 31.3319C330.945 27.9119 332.549 25.2399 335.755 23.3159L335.632 22.9949C335.516 22.7159 335.41 22.4359 335.311 22.1569C333.42 22.9129 331.948 24.0809 330.896 25.6589C329.843 27.2369 329.317 29.0469 329.317 31.0849C329.317 33.2559 329.984 35.0639 331.315 36.5119C332.647 37.9589 334.316 38.6809 336.322 38.6809C338.558 38.6809 340.589 37.7119 342.414 35.7709C340.277 32.8449 338.147 28.9059 336.026 23.9569ZM334.719 19.9859C334.275 18.3749 334.053 16.8619 334.053 15.4479C334.053 13.2439 334.604 11.4759 335.705 10.1449C336.807 8.81191 338.262 8.14591 340.071 8.14591C341.748 8.14591 343.175 8.69791 344.35 9.79991C345.526 10.9009 346.114 12.2249 346.114 13.7699C346.114 16.9279 343.869 19.2139 339.38 20.6269C341.123 25.0839 342.957 28.7009 344.881 31.4789C345.144 30.9369 345.349 30.3199 345.497 29.6299C343.787 27.0149 342.381 24.3269 341.28 21.5639L341.625 21.4169C345.555 19.8219 347.52 17.4209 347.52 14.2149C347.52 13.0629 347.125 11.8469 346.336 10.5639L346.139 10.2439C347.454 11.3939 348.112 12.8419 348.112 14.5849C348.112 17.7089 346.122 20.1829 342.143 22.0089C343.294 24.7379 344.453 26.9989 345.621 28.7909C345.686 28.0019 345.719 27.2209 345.719 26.4479C345.719 25.2309 345.645 24.2279 345.497 23.4389L345.744 23.5869C347.947 25.2809 350.027 26.4809 351.984 27.1879C350.011 29.1779 348.243 31.5539 346.682 34.3159C348.605 37.0289 350.471 38.3859 352.28 38.3859C352.987 38.3859 353.588 38.1799 354.081 37.7689L354.525 37.3749C354.755 37.1939 354.968 37.1029 355.166 37.1029C355.725 37.1029 356.005 37.3339 356.005 37.7939C356.005 38.4839 355.462 39.1709 354.377 39.8529C353.292 40.5359 352.214 40.8769 351.146 40.8769C349.485 40.8769 347.693 40.2609 345.769 39.0269C343.417 41.5759 340.408 42.8489 336.742 42.8489C333.338 42.8489 330.427 41.7489 328.01 39.5449L328.158 39.3229C330.805 41.2309 333.666 42.1839 336.742 42.1839C340.178 42.1839 342.99 40.9919 345.177 38.6079C344.848 38.3779 344.543 38.1389 344.264 37.8919C341.88 39.7339 339.183 40.6549 336.174 40.6549C332.672 40.6549 329.806 39.7049 327.579 37.8059C325.35 35.9069 324.237 33.4699 324.237 30.4929C324.237 27.9609 325.034 25.8729 326.629 24.2279C328.224 22.5839 330.773 21.2109 334.275 20.1089L334.719 19.9859Z" fill="white"/>
<path d="M402.744 11.156L402.473 11.625C400.681 14.683 399.25 17.47 398.181 19.986L397.515 19.665L397.787 19.049C398.609 17.322 399.332 15.891 399.957 14.757L401.93 11.255L402.177 10.811L402.744 11.156ZM393.791 14.239C392.294 13.039 390.881 12.438 389.549 12.438C385.29 12.438 383.161 16.5 383.161 24.623C383.161 28.322 383.654 31.402 384.64 33.86C385.627 36.318 387.016 37.909 388.809 38.633V38.879C386.868 38.484 385.318 36.992 384.159 34.402C383 31.812 382.42 28.537 382.42 24.574C382.42 16.072 384.755 11.822 389.425 11.822C391.004 11.822 392.459 12.521 393.791 13.919V14.239ZM401.832 31.183C401.568 35.261 400.43 38.365 398.416 40.495C396.401 42.625 393.585 43.688 389.968 43.688C387.222 43.688 384.665 42.842 382.297 41.148V40.951C384.402 42.332 386.942 43.022 389.919 43.022C393.174 43.022 395.829 41.978 397.885 39.89C398.888 38.871 399.628 37.728 400.105 36.462C400.582 35.196 400.902 33.518 401.067 31.43L401.116 30.863L401.832 31.183ZM400.944 9.972L400.673 10.441C399.192 13.022 397.91 15.604 396.825 18.185L396.603 18.753L396.282 18.58C395.904 16.081 395.024 14.099 393.643 12.635C392.262 11.173 390.593 10.441 388.636 10.441C386.548 10.441 384.805 11.353 383.407 13.178C381.647 15.448 380.768 19.295 380.768 24.721C380.768 29.391 381.578 33.05 383.197 35.697C384.817 38.344 387.066 39.669 389.943 39.669C392.245 39.669 394.083 38.9 395.456 37.362C396.828 35.825 397.647 33.626 397.91 30.764C397.976 30.074 398.255 29.728 398.749 29.728C399.39 29.728 399.711 30.263 399.711 31.332C399.711 32.927 399.348 34.579 398.625 36.29C397.096 39.907 393.939 41.716 389.154 41.716C384.878 41.716 381.483 40.216 378.968 37.215C376.452 34.214 375.194 30.156 375.194 25.042C375.194 20.323 376.501 16.369 379.115 13.178C381.73 9.988 384.977 8.393 388.858 8.393C390.699 8.393 392.796 8.846 395.147 9.75C396.381 10.227 397.4 10.466 398.206 10.466C399.077 10.466 399.859 10.227 400.549 9.75L400.944 9.972Z" fill="white"/>
<path d="M423.537 14.7078L423.118 14.4608C421.539 13.5898 420.092 13.1538 418.777 13.1538C414.452 13.1538 412.29 17.4038 412.29 25.9048C412.29 32.1208 413.63 36.2398 416.31 38.2628L416.088 38.5098C414.444 37.3418 413.272 35.8088 412.574 33.9088C411.875 32.0098 411.525 29.4408 411.525 26.2008C411.525 17.0748 413.926 12.5128 418.727 12.5128C420.914 12.5128 422.517 13.2438 423.537 14.7078ZM426.127 10.1458C428.478 11.2788 430.336 13.2198 431.701 15.9658C433.066 18.7118 433.748 21.8858 433.748 25.4858C433.748 30.7808 432.404 35.0568 429.715 38.3118C427.027 41.5668 423.496 43.1948 419.122 43.1948C416.327 43.1948 413.712 42.2498 411.279 40.3588V40.2348C413.317 41.7318 415.874 42.4798 418.949 42.4798C423.077 42.4798 426.464 40.9268 429.111 37.8178C431.758 34.7108 433.082 30.7398 433.082 25.9048C433.082 22.3048 432.478 19.1558 431.269 16.4588C430.061 13.7628 428.347 11.7478 426.127 10.4158V10.1458ZM418.259 11.0088C412.701 11.0088 409.922 15.8918 409.922 25.6588C409.922 34.6868 412.66 39.1998 418.135 39.1998C420.684 39.1998 422.624 38.0038 423.956 35.6108C425.288 33.2188 425.954 29.7208 425.954 25.1158C425.954 19.9038 425.313 16.2698 424.03 14.2148C422.682 12.0768 420.758 11.0088 418.259 11.0088ZM418.259 8.8868C422.254 8.8868 425.449 10.3998 427.841 13.4258C430.234 16.4508 431.43 20.4958 431.43 25.5608C431.43 30.3448 430.25 34.1598 427.89 37.0048C425.53 39.8498 422.361 41.2708 418.382 41.2708C415.241 41.2708 412.446 40.2688 409.996 38.2628C406.395 35.3028 404.595 30.9208 404.595 25.1158C404.595 20.1498 405.828 16.2038 408.294 13.2768C410.761 10.3508 414.082 8.8868 418.259 8.8868Z" fill="white"/>
<path d="M444.6 35.8699C445.504 36.7089 445.957 37.7619 445.957 39.0269C445.957 40.1449 445.541 41.1239 444.711 41.9619C443.881 42.8009 442.915 43.2199 441.813 43.2199C440.481 43.2199 439.404 42.7259 438.582 41.7399L438.755 41.5669C439.807 42.1929 440.761 42.5049 441.616 42.5049C442.652 42.5049 443.535 42.1469 444.267 41.4319C444.999 40.7169 445.365 39.8659 445.365 38.8789C445.365 37.9419 445.036 36.9969 444.378 36.0429L444.6 35.8699ZM440.555 34.8339C441.443 34.8339 442.199 35.1459 442.825 35.7709C443.449 36.3959 443.762 37.1519 443.762 38.0409C443.762 38.9119 443.449 39.6599 442.825 40.2849C442.199 40.9099 441.443 41.2229 440.555 41.2229C439.684 41.2229 438.935 40.9099 438.311 40.2849C437.686 39.6599 437.374 38.9119 437.374 38.0409C437.374 37.1519 437.686 36.3959 438.311 35.7709C438.935 35.1459 439.684 34.8339 440.555 34.8339Z" fill="white"/>
</svg>
