<svg width="509" height="64" viewBox="0 0 509 64" fill="none" xmlns="http://www.w3.org/2000/svg">
<g clip-path="url(#clip0_2041_30)">
<path d="M42.1222 0.929042H0.913861V45.283L4.94956 49.6647L17.1041 49.6807C17.1886 49.6804 17.2298 49.7336 17.2861 49.7838C17.3428 49.8344 18.1376 50.9273 18.1376 51.0013V55.898H6.28738L5.25872 57.51C5.42256 58.454 5.00146 60.9057 5.32137 61.6577C5.37104 61.7741 6.30147 63.0753 6.39192 63.1553C6.47162 63.2264 6.52166 63.2744 6.63954 63.264L17.4262 63.2257L18.6317 61.5055L18.5646 56.3271H22.5499L22.6244 61.5773L23.7391 63.2621L38.5132 63.2461L42.1222 58.9362V0.929042ZM36.9979 0.28569L42.7628 0.357507V59.1505C41.4565 60.5291 40.3585 62.2925 39.0599 63.6517C38.9499 63.7667 38.8327 63.9427 38.6689 63.974L23.0985 63.9766L21.9805 62.0811V57.1133H19.2052V62.0097C18.7933 62.4867 18.4108 63.3708 17.9945 63.7957C17.9189 63.8727 17.8692 63.9658 17.7443 63.9736L5.8003 63.8925C5.74136 63.8798 5.72208 63.8311 5.68983 63.7894C5.58307 63.6517 4.86171 62.2642 4.81241 62.0971C4.68897 61.6767 4.67933 58.1068 4.76162 57.5821L5.78918 55.469H17.5682V51.0013C17.5682 50.9421 16.8376 50.2296 16.6823 50.2474L4.59259 50.2378L0.344482 45.3191V0.28569H36.9979Z" fill="#E5001D"/>
<path d="M41.0546 2.00137H2.05261V44.7114L5.30541 48.5366L17.5667 48.6441L19.2456 50.3159L19.2359 55.4024L19.3827 55.469L21.9809 55.398L21.9242 50.3728L23.881 48.5507L35.4581 48.6166C35.5574 48.6504 35.7324 49.2026 35.7895 49.3563C35.9574 49.8091 36.3203 50.7003 36.3603 51.1416C36.4382 51.9914 36.4767 54.4941 36.3529 55.286C36.2751 55.7838 35.6753 56.5667 35.5744 57.1133H23.6175V61.5807C23.6175 61.6499 23.9704 62.1306 24.0208 62.2627L37.9575 62.2586L38.1388 62.1552L41.0546 58.5786V2.00137ZM41.6952 1.35802V58.7929L38.2996 62.8167L24.0816 62.8305C23.9971 62.8309 23.9559 62.7773 23.8996 62.7271C23.8095 62.6467 23.07 61.5341 23.0514 61.4348C22.8802 60.5094 23.0804 58.6969 23.0511 57.6465C23.0396 57.2331 22.9106 56.768 22.9769 56.3271H34.756C34.998 55.9736 35.4907 55.4567 35.6508 55.0813C35.765 54.8141 35.7731 51.3916 35.7105 50.9366C35.6886 50.7762 35.2175 49.501 35.1344 49.3708C35.1059 49.3254 35.0951 49.2718 35.031 49.2599L23.9396 49.2517C23.6067 49.3157 22.8376 50.5734 22.5099 50.8268C22.4606 50.9287 22.5499 50.9764 22.5499 51.0013V55.898H18.5646V50.8588C18.5646 50.7713 17.662 49.5267 17.5675 49.43C17.4918 49.3529 17.4422 49.2599 17.3172 49.2521L5.0919 49.2514L1.34088 45.1405V1.35802H41.6952Z" fill="#E5001D"/>
<path d="M17.568 57.1133H6.85658C6.66122 57.4099 6.42472 57.8716 6.39062 58.2177C6.31574 58.9723 6.4162 59.8977 6.46439 60.6523C6.49923 61.1963 6.34132 61.7626 6.7969 62.1767C10.182 62.2768 13.5716 62.2616 16.9653 62.2653L17.0557 62.2448C17.0895 62.0722 17.568 61.526 17.568 61.4378V57.1133ZM18.1374 56.3271V61.2234C18.1374 61.2458 18.2026 61.3023 18.2023 61.3674L18.1567 61.5241C17.8968 61.7552 17.3808 62.7758 17.1043 62.8301L6.7261 62.8201C6.20639 62.16 5.7434 61.7544 5.67964 60.8688C5.60476 59.8311 5.73784 58.701 5.68557 57.6525L6.46513 56.3271H18.1374Z" fill="#E5001D"/>
<path d="M34.5069 55.3976C34.5659 55.1572 34.6923 54.9771 34.7204 54.7189C34.7998 53.9989 34.7994 52.2221 34.7208 51.5014C34.6989 51.3008 34.399 50.3148 34.2463 50.2627L24.6481 50.2497C24.2877 50.285 24.0435 50.6527 23.7944 50.8967C23.7339 50.9559 23.6175 50.9563 23.6175 50.966V55.3976H34.5069ZM22.977 55.898V50.9302C23.2795 50.7055 23.8185 49.7451 24.1528 49.6811C27.6914 49.6301 31.2089 49.7671 34.7445 49.7622C34.8594 49.8017 35.2594 50.8365 35.2854 51.0061C35.3484 51.4199 35.3306 54.6884 35.2238 54.9384C35.1052 55.2171 34.7245 55.6313 34.5425 55.898H22.977Z" fill="#E5001D"/>
<path d="M32.3718 6.79062V11.3655L30.3434 10.0074H22.9058C23.4522 11.1876 23.2406 12.4129 23.1194 13.6528H30.5569L33.7952 12.0085V17.191C33.7952 17.217 33.4442 17.4753 33.3682 17.4414V12.5808L30.7704 13.9389H22.6923C22.7976 12.8152 23.1446 11.5542 22.6945 10.4699C22.4744 9.93927 22.4247 9.97165 21.8383 10.0074C22.1448 11.5069 22.0773 12.9387 21.8383 14.4394H30.5569L32.3718 13.2237V17.7986L30.4145 16.5119H22.6923C22.6864 17.1553 23.2606 17.6345 23.8311 17.7997C23.6746 18.1462 23.4608 17.9493 23.2246 17.8005C22.7468 17.4987 22.365 17.0946 22.2575 16.5201L21.6244 16.5119C21.5565 17.3756 22.3131 17.9709 23.0482 18.2284C23.1286 18.3136 23.0419 18.3575 22.9585 18.3895C22.6931 18.4922 21.1962 17.8399 20.89 17.6431C20.4285 17.3458 20.1683 17.0061 19.9403 16.5089L12.0569 16.5168L9.88129 17.7986V13.0809L12.2622 14.4423L19.8043 14.4431L19.9166 13.9389H12.4079L10.5222 12.8654C10.5571 12.7489 10.7339 12.6567 10.8429 12.657C11.1086 12.6582 12.253 13.559 12.6248 13.6498L19.907 13.6431C20.2043 12.4613 20.2061 11.1947 19.9073 10.0167L11.9138 10.0111L9.88129 11.2223V6.5763L12.0917 7.89462L30.644 7.87862L32.3718 6.79062Z" fill="#E5001D"/>
<path d="M32.3718 37.9565L30.8312 36.7496L30.5761 36.6845L22.1507 39.0928L22.0521 39.242L25.5081 40.8112L30.644 40.7602L33.7952 39.1717V44.3896L33.3682 44.6039V39.8151L30.6948 41.0259L25.2886 41.0318C24.4661 40.9027 22.0106 39.264 21.3842 39.3161C21.1947 39.3321 20.9897 39.4992 20.7703 39.4579L20.8619 39.6171L25.1459 41.6037L30.4101 41.5974L32.3718 40.4584V44.9615L30.376 43.642L11.8941 43.6588L9.88129 44.89V40.2437L12.1944 41.6019H22.7635L21.5198 41.0285L12.3408 41.0262L10.4514 39.9568C10.4585 39.8266 10.7431 39.805 10.8362 39.8147C11.1665 39.8497 12.3564 40.816 12.5503 40.816H21.1265L14.4845 37.5866C13.1063 36.9896 11.3121 36.5427 10.249 37.9323C10.1126 38.1105 10.1745 38.387 9.88129 38.3137V33.0242C10.1649 32.9587 10.2056 33.3316 10.3491 33.5195C12.068 35.7706 15.4961 36.8932 17.946 38.1507L30.4182 34.4575L32.3718 32.8095V37.9565Z" fill="#E5001D"/>
<path d="M19.1192 22.1801C17.1323 22.2523 11.3454 22.4272 11.1623 25.1982C11.0585 26.7718 12.6925 27.5781 13.9547 27.968C17.4003 29.033 25.9821 29.1825 29.2657 27.7243C31.1614 26.8826 32.1063 24.9254 30.046 23.6012C27.6587 22.067 21.946 22.0771 19.1192 22.1801ZM19.8309 19.9643C23.1853 19.8106 32.1367 20.1861 32.649 24.7759C33.1928 29.6469 25.5647 30.7569 22.1592 30.8804C18.75 31.0043 11.0926 30.5545 9.86155 26.5035C8.30762 21.3913 16.4431 20.1191 19.8309 19.9643Z" fill="#E5001D"/>
<path d="M33.3682 37.456V31.6658L30.7741 33.8143L17.959 37.4984C16.3483 36.567 11.681 34.8684 11.2113 32.9391C11.132 32.6128 11.1279 32.4956 11.5179 32.5235C11.6884 33.7901 13.1285 34.6816 14.1501 35.2774C15.3656 35.9858 16.7168 36.5633 17.9582 37.2342L30.3786 33.7027L33.7952 30.8796V37.2055C33.7952 37.2409 33.5235 37.4426 33.4734 37.4549L33.3682 37.456Z" fill="#E5001D"/>
<path d="M33.7952 10.7935L33.3682 10.9364V6.07576L30.7863 7.37846L12.5469 7.43725L10.5222 6.32618C10.5604 6.24543 10.8125 6.15092 10.9018 6.16543C11.2755 6.2272 12.2011 7.11725 12.6911 7.14962H30.4876L33.7952 5.50385V10.7935Z" fill="#E5001D"/>
<path d="M32.443 27.8051C34.4725 25.3612 33.5855 22.9084 31.0848 21.343C26.4957 18.4704 15.9177 18.4857 11.4249 21.529C11.1702 21.7013 10.8748 22.0976 10.5934 22.0522C11.3471 21.2165 12.3809 20.6546 13.4222 20.2472C18.1411 18.3986 27.0443 18.4552 31.4685 21.1004C33.8461 22.5225 35.0849 25.1086 32.9431 27.4148C32.8793 27.4836 32.5205 27.8822 32.443 27.8051Z" fill="#E5001D"/>
<path d="M13.582 23.303L12.9289 24.2548C12.0878 25.9377 13.6354 26.7296 15.0062 27.1266C18.2809 28.0751 26.0546 28.0728 29.2392 26.8401C29.7289 26.6503 30.1597 26.3545 30.6275 26.1614L30.6631 26.3035C29.5654 27.0384 28.4148 27.4697 27.1181 27.7119C24.001 28.2942 16.5042 28.3489 13.6766 26.9606C11.8776 26.0777 11.7104 24.1536 13.582 23.303Z" fill="#E5001D"/>
</g>
<g clip-path="url(#clip1_2041_30)">
<path d="M94.1952 31.3425C94.5562 32.8215 95.4612 34.8535 96.9082 37.4345C96.5462 37.3855 96.3412 37.3615 96.2912 37.3615L94.2942 37.1885C93.3892 37.1065 92.7312 37.0645 92.3202 37.0645C92.2542 37.0645 92.0902 37.0725 91.8272 37.0895L95.9462 48.0155L101.446 52.8745H87.1652L86.6972 52.2085H99.7942L95.3542 48.2865L90.9642 36.6695C91.5222 36.5225 92.1642 36.4475 92.8872 36.4475C93.7762 36.4475 94.7622 36.5225 95.8472 36.6695L95.5522 36.1275C94.4992 34.1875 93.7922 32.4365 93.4302 30.8735L94.1952 31.3425ZM80.8022 27.1245L78.0892 34.2785C78.2372 34.4425 78.3192 34.5405 78.3352 34.5735L79.3472 35.7075C79.8892 36.3005 80.5802 37.2205 81.4192 38.4705L81.6652 38.8405C82.3722 37.9525 83.2112 37.0725 84.1812 36.2005L80.8022 27.1245ZM79.6922 24.2635L75.7702 34.6225C77.0202 35.9045 78.0972 37.1715 79.0022 38.4205L80.1362 39.9995C80.1522 40.0165 80.2342 40.1225 80.3822 40.3205C80.5302 40.1725 80.6132 40.0825 80.6292 40.0485L80.9752 39.6295C81.0242 39.5645 81.1142 39.4565 81.2462 39.3095C80.0942 37.5325 78.7552 35.9305 77.2262 34.4995L80.3822 26.1625L79.6922 24.2635ZM86.8942 19.2065L84.3292 22.1175L88.3742 32.8715L89.3602 32.3285L85.7102 22.6115L88.3252 19.6025L88.9662 19.8725L86.4752 22.7595L89.9282 31.9595C90.1252 31.8115 90.2402 31.7215 90.2732 31.6885L91.0872 30.9965C91.5802 30.6025 91.8932 30.3225 92.0252 30.1575C92.4512 32.0325 93.1102 33.7105 93.9972 35.1905C93.5212 35.1565 93.1752 35.1415 92.9622 35.1415C91.3992 35.1415 90.2572 35.3875 89.5332 35.8805L93.9972 47.9905L97.6972 50.8525H85.2422L88.6452 47.9905L85.9082 40.7885C84.0982 42.6135 82.7092 44.3495 81.7392 45.9925L81.1722 45.8455C82.1422 44.2345 83.5892 42.4335 85.5132 40.4435L85.7102 40.1965L85.2422 39.1125C83.2852 40.7395 81.6652 42.6305 80.3822 44.7845L79.9392 44.0705C79.0832 42.7045 77.9902 41.1515 76.6582 39.4075L76.4122 39.1125C75.1452 41.9235 74.5132 44.2085 74.5132 45.9685C74.5132 47.0045 74.6892 47.8805 75.0432 48.5955C75.3962 49.3105 76.2472 50.5065 77.5962 52.1845C77.7102 52.3315 77.8922 52.5625 78.1382 52.8745H64.8192L64.3262 52.2085H76.8802L76.4612 51.6905C75.3762 50.3755 74.6642 49.3525 74.3272 48.6195C73.9902 47.8885 73.8222 47.0295 73.8222 46.0425C73.8222 44.3655 74.5042 41.8655 75.8692 38.5445L74.7842 37.4095C74.5702 37.9365 74.2982 38.7085 73.9702 39.7285L73.1562 42.2435C72.7122 43.5925 72.4902 44.7105 72.4902 45.5985C72.4902 46.5195 72.6462 47.2835 72.9582 47.8925C73.2712 48.5005 73.9292 49.3305 74.9322 50.3835C75.0302 50.4825 75.1782 50.6395 75.3762 50.8525H63.0432C65.3952 49.6355 67.2572 47.9995 68.6302 45.9445C70.0022 43.8885 71.3632 40.7145 72.7122 36.4235L72.8102 36.0775C71.9392 35.3385 70.6812 34.8855 69.0372 34.7215C69.9412 33.3735 70.6402 31.9675 71.1332 30.5035C71.3632 30.7175 71.5032 30.8495 71.5522 30.8985L72.6622 31.9345C73.0402 32.2965 73.4932 32.6655 74.0192 33.0445L74.4632 31.9595L74.1672 31.7125C73.3452 30.9885 72.6542 30.4055 72.0952 29.9605L71.8732 29.7885L72.2682 29.2455C73.1392 29.8215 73.9782 30.4885 74.7842 31.2435L78.1382 22.0195L75.5242 19.2065H86.8942Z" fill="#E5001D"/>
<path d="M110.942 45.8699C111.846 46.7089 112.299 47.7619 112.299 49.0269C112.299 50.1449 111.883 51.1239 111.053 51.9619C110.223 52.8009 109.257 53.2199 108.155 53.2199C106.823 53.2199 105.746 52.7259 104.924 51.7399L105.097 51.5669C106.149 52.1929 107.103 52.5049 107.958 52.5049C108.994 52.5049 109.877 52.1469 110.609 51.4319C111.341 50.7169 111.707 49.8659 111.707 48.8789C111.707 47.9419 111.378 46.9969 110.72 46.0429L110.942 45.8699ZM106.897 44.8339C107.785 44.8339 108.541 45.1459 109.167 45.7709C109.791 46.3959 110.104 47.1519 110.104 48.0409C110.104 48.9119 109.791 49.6599 109.167 50.2849C108.541 50.9099 107.785 51.2229 106.897 51.2229C106.026 51.2229 105.277 50.9099 104.653 50.2849C104.028 49.6599 103.716 48.9119 103.716 48.0409C103.716 47.1519 104.028 46.3959 104.653 45.7709C105.277 45.1459 106.026 44.8339 106.897 44.8339Z" fill="#E5001D"/>
<path d="M156.301 20.9343L156.128 21.1563C154.122 23.8523 152.782 26.1133 152.108 27.9383L151.689 27.4203C152.79 24.8723 154.212 22.5373 155.955 20.4153L156.301 20.9343ZM149.049 29.1473V40.0483L148.433 39.7283V28.8273L149.049 29.1473ZM159.261 50.6553L157.978 52.8743H131.044L130.65 52.2083H157.658L158.496 50.6553C156.128 48.4683 154.459 46.1323 153.489 43.6503L154.278 43.9463C155.182 46.0503 156.712 48.1563 158.866 50.2603L159.261 50.6553ZM155.117 19.2063L154.722 19.6753C153.045 21.7323 151.713 24.0913 150.727 26.7543C150.562 26.3763 150.439 26.0973 150.356 25.9153C149.452 23.9433 148.482 22.6683 147.446 22.0933C146.41 21.5173 144.552 21.2303 141.872 21.2303C140.639 21.2303 139.159 21.2713 137.433 21.3533V32.6993H139.011V22.6613C140.26 22.5453 141.453 22.4883 142.587 22.4883C144.675 22.4883 146.213 22.7093 147.2 23.1543C148.186 23.5973 149.066 24.4603 149.839 25.7443C149.608 25.5793 149.444 25.4553 149.345 25.3733C148.014 24.3213 147.052 23.6963 146.46 23.4983C145.867 23.3013 144.7 23.2033 142.957 23.2033C142.431 23.2033 141.494 23.2363 140.146 23.3013L139.627 23.3273V32.6993H144.166L147.348 28.3323V38.9633L144.166 34.8443H137.433V48.6813H139.011V36.0033H144.363L145.004 36.6453H139.627V48.6813C142.982 48.6813 145.366 48.4433 146.78 47.9663C148.194 47.4903 149.304 46.5523 150.11 45.1553L151.417 42.9113C151.466 42.8113 151.565 42.6303 151.713 42.3673C152.14 44.1763 152.671 45.6233 153.304 46.7083C153.937 47.7933 154.985 49.0603 156.449 50.5063H128.8L132.549 47.6463V36.6453C131.168 36.8103 129.918 37.2373 128.8 37.9273L128.454 37.4103C129.457 36.6863 130.822 36.2183 132.549 36.0033V34.8443C132.269 34.8123 132.072 34.7953 131.957 34.7953C130.279 34.7953 128.751 35.4123 127.369 36.6453C128.125 34.0143 129.852 32.6993 132.549 32.6993V22.1673L128.8 19.2063H155.117Z" fill="#E5001D"/>
<path d="M184.468 20.5144L184.246 20.8844C183.571 22.0194 182.996 23.1044 182.519 24.1404C181.368 26.5574 180.719 27.9064 180.571 28.1854L180.447 28.3584L179.856 28.1114L179.954 27.8894C180.431 26.8044 181.121 25.3904 182.026 23.6474L183.703 20.3914L183.826 20.1944L184.468 20.5144ZM177.266 25.4224C175.457 23.4984 173.517 22.5364 171.445 22.5364C170.195 22.5364 169.159 22.8994 168.337 23.6224C167.515 24.3464 167.104 25.2674 167.104 26.3844C167.104 27.6014 167.934 28.8514 169.595 30.1334L169.792 30.2564L169.669 30.4534C167.499 29.4844 166.413 28.0784 166.413 26.2374C166.413 24.9534 166.873 23.9104 167.794 23.1044C168.715 22.2984 169.916 21.8964 171.396 21.8964C172.809 21.8964 174.047 22.1964 175.108 22.7964C176.168 23.3964 176.945 24.2394 177.438 25.3244L177.266 25.4224ZM165.377 42.3184C165.986 45.2784 167.613 47.3744 170.261 48.6084V48.8054C167.203 47.9164 165.352 45.7954 164.711 42.4414L165.377 42.3184ZM162.294 34.3274L163.133 34.7954C163.676 35.7654 165.262 36.5714 167.893 37.2124L171.864 38.1994C174.561 38.8734 176.357 39.4534 177.253 39.9384C178.15 40.4234 178.786 41.1594 179.165 42.1454L178.992 42.2434C178.252 41.3894 177.451 40.7644 176.587 40.3694C175.724 39.9754 174.067 39.4914 171.617 38.9144C168.066 38.0924 165.681 37.3814 164.465 36.7814C163.248 36.1814 162.524 35.3634 162.294 34.3274ZM182.939 35.2144C185.174 36.9094 186.293 39.2274 186.293 42.1694C186.293 45.3114 185.076 47.9704 182.643 50.1494C180.209 52.3284 177.249 53.4164 173.763 53.4164C171.987 53.4164 170.384 53.2364 168.954 52.8744L165.007 51.9124C164.086 51.6824 163.1 51.5674 162.048 51.5674C161.111 51.5674 160.247 51.7564 159.458 52.1344L159.162 51.4194C160.017 51.0254 160.888 50.8274 161.776 50.8274C162.763 50.8274 163.889 50.9754 165.155 51.2714L168.954 52.1844C170.466 52.5454 172.061 52.7264 173.739 52.7264C177.027 52.7264 179.826 51.6784 182.137 49.5814C184.447 47.4854 185.602 44.9494 185.602 41.9724C185.602 39.4564 184.715 37.2534 182.939 35.3634V35.2144ZM182.939 19.4784C182.083 20.6294 181.401 21.8304 180.891 23.0794C179.888 25.5464 179.222 27.0594 178.894 27.6184L178.77 27.7664C178.704 27.5854 178.655 27.4454 178.622 27.3464C178.162 25.8674 177.784 24.8394 177.488 24.2634C177.192 23.6884 176.748 23.1374 176.156 22.6114C174.659 21.2794 172.957 20.6134 171.05 20.6134C169.29 20.6134 167.827 21.1024 166.66 22.0804C165.492 23.0594 164.909 24.2884 164.909 25.7684C164.909 28.5314 166.988 30.4134 171.149 31.4164L175.317 32.4274C181.253 33.8584 184.221 36.9914 184.221 41.8254C184.221 44.5224 183.205 46.7864 181.175 48.6194C179.144 50.4534 176.632 51.3694 173.64 51.3694C171.765 51.3694 169.669 51.0824 167.351 50.5064L164.465 49.7914C163.297 49.5124 162.335 49.3714 161.579 49.3714C160.576 49.3714 159.54 49.6934 158.471 50.3334L158.274 49.9894C160.313 46.9134 161.743 43.9874 162.566 41.2074L163.01 41.3314C163.355 43.9124 164.391 45.9194 166.117 47.3504C167.844 48.7804 170.104 49.4954 172.9 49.4954C175.103 49.4954 176.855 48.9864 178.154 47.9664C179.452 46.9474 180.102 45.5744 180.102 43.8474C180.102 41.8584 179.197 40.2134 177.389 38.9144C176.09 37.9934 173.426 37.1384 169.398 36.3494C166.29 35.7414 164.037 34.7304 162.639 33.3164C161.242 31.9014 160.543 29.9364 160.543 27.4204C160.543 24.8234 161.476 22.7134 163.343 21.0944C165.209 19.4754 167.638 18.6644 170.631 18.6644C172.555 18.6644 174.799 19.0094 177.364 19.7014C178.564 20.0304 179.452 20.1944 180.028 20.1944C180.833 20.1944 181.714 19.9144 182.667 19.3554L182.939 19.4784Z" fill="#E5001D"/>
<path d="M200.302 20.5398L197.885 22.9808V41.3068L197.86 43.0098L198.625 46.1418C199.003 46.7668 199.718 47.5218 200.771 48.4098L200.82 48.6328C199.439 48.0728 198.485 47.2598 197.959 46.1898C197.433 45.1218 197.169 43.4698 197.169 41.2328V22.7338L199.957 20.0208L200.302 20.5398ZM216.951 20.8848L213.596 23.6718V38.9878C213.596 44.0038 213.201 47.2758 212.412 48.8058C210.801 51.8968 207.652 53.4418 202.966 53.4418C198.921 53.4418 195.879 52.4308 193.84 50.4078L194.037 50.5068L194.9 50.9998C196.923 52.1848 199.521 52.7758 202.695 52.7758C207.233 52.7758 210.242 51.3458 211.722 48.4838C212.511 46.9388 212.906 43.8308 212.906 39.1608V23.3758L216.581 20.3668L216.951 20.8848ZM216.112 19.2068L211.697 22.7338V38.6678C211.697 41.5948 211.602 43.6998 211.413 44.9818C211.224 46.2648 210.85 47.3168 210.291 48.1398C208.877 50.2438 206.131 51.2958 202.053 51.2958C197.745 51.2958 194.736 50.2438 193.026 48.1398C191.661 46.4778 190.979 43.2968 190.979 38.5938V22.2168L187.624 19.2068H199.266L195.912 22.4878V38.6188L195.961 42.4168C195.961 44.8668 196.471 46.6058 197.49 47.6338C198.51 48.6618 200.228 49.1748 202.645 49.1748C205.309 49.1748 207.142 48.3938 208.146 46.8318C208.951 45.5648 209.354 42.8518 209.354 38.6918L209.453 22.7338L205.605 19.2068H216.112Z" fill="#E5001D"/>
<path d="M246.5 20.7127C244.148 23.4577 242.668 25.9737 242.06 28.2597L241.542 27.9137C242.167 25.3327 243.671 22.7917 246.056 20.2927L246.5 20.7127ZM238.879 29.4917V40.1477L238.237 39.7777V29.1227L238.879 29.4917ZM234.463 36.9417H229.407V47.4977L233.748 52.8747H219.467L218.851 52.2087H232.367L228.791 47.7937V36.2757H233.748L234.463 36.9417ZM219.023 19.2067H244.625C243.606 20.5557 242.878 21.6157 242.442 22.3897C242.007 23.1617 241.452 24.4037 240.778 26.1127L240.58 26.6077C239.495 24.3707 238.422 22.9237 237.361 22.2667C236.301 21.6087 234.513 21.2787 231.997 21.2787L230.591 21.3047L228.198 21.2787L227.286 21.2547V32.7977H228.791V22.6107L229.506 22.5867C230.525 22.5367 231.61 22.5127 232.762 22.5127C236.116 22.5127 238.213 23.3847 239.051 25.1267C238.245 24.3547 237.369 23.8317 236.424 23.5617C235.478 23.2897 234.019 23.1537 232.046 23.1537C231.339 23.1537 230.459 23.1947 229.407 23.2767V32.7977H233.132L237.078 28.6297V38.9637L232.934 34.8697H227.286V47.3007L230.443 50.5067H218.333L222.353 47.3007V36.6947C221.087 36.6947 219.977 37.1717 219.023 38.1247L218.554 37.6077C219.508 36.5557 220.774 36.0287 222.353 36.0287V34.8697C222.008 34.8367 221.761 34.8197 221.613 34.8197C220.084 34.8197 218.76 35.4447 217.642 36.6947L217.469 36.3007C218.209 34.1627 219.837 32.9947 222.353 32.7977V22.3897L219.023 19.2067Z" fill="#E5001D"/>
<path d="M276.467 31.3425C276.828 32.8215 277.733 34.8535 279.18 37.4345C278.818 37.3855 278.613 37.3615 278.563 37.3615L276.566 37.1885C275.661 37.1065 275.003 37.0645 274.592 37.0645C274.526 37.0645 274.362 37.0725 274.099 37.0895L278.218 48.0155L283.718 52.8745H269.437L268.969 52.2085H282.066L277.626 48.2865L273.236 36.6695C273.794 36.5225 274.436 36.4475 275.159 36.4475C276.048 36.4475 277.034 36.5225 278.119 36.6695L277.824 36.1275C276.771 34.1875 276.064 32.4365 275.702 30.8735L276.467 31.3425ZM263.074 27.1245L260.361 34.2785C260.509 34.4425 260.591 34.5405 260.607 34.5735L261.619 35.7075C262.161 36.3005 262.852 37.2205 263.691 38.4705L263.937 38.8405C264.644 37.9525 265.483 37.0725 266.453 36.2005L263.074 27.1245ZM261.964 24.2635L258.042 34.6225C259.292 35.9045 260.369 37.1715 261.273 38.4205L262.408 39.9995C262.424 40.0165 262.506 40.1225 262.654 40.3205C262.802 40.1725 262.885 40.0825 262.901 40.0485L263.247 39.6295C263.296 39.5645 263.386 39.4565 263.518 39.3095C262.366 37.5325 261.027 35.9305 259.498 34.4995L262.654 26.1625L261.964 24.2635ZM269.166 19.2065L266.601 22.1175L270.646 32.8715L271.632 32.3285L267.982 22.6115L270.597 19.6025L271.238 19.8725L268.747 22.7595L272.2 31.9595C272.397 31.8115 272.512 31.7215 272.545 31.6885L273.359 30.9965C273.852 30.6025 274.165 30.3225 274.297 30.1575C274.723 32.0325 275.382 33.7105 276.269 35.1905C275.793 35.1565 275.447 35.1415 275.234 35.1415C273.671 35.1415 272.529 35.3875 271.805 35.8805L276.269 47.9905L279.969 50.8525H267.514L270.917 47.9905L268.18 40.7885C266.37 42.6135 264.981 44.3495 264.011 45.9925L263.444 45.8455C264.414 44.2345 265.861 42.4335 267.785 40.4435L267.982 40.1965L267.514 39.1125C265.557 40.7395 263.937 42.6305 262.654 44.7845L262.211 44.0705C261.355 42.7045 260.262 41.1515 258.93 39.4075L258.684 39.1125C257.417 41.9235 256.785 44.2085 256.785 45.9685C256.785 47.0045 256.961 47.8805 257.315 48.5955C257.668 49.3105 258.519 50.5065 259.868 52.1845C259.982 52.3315 260.164 52.5625 260.41 52.8745H247.091L246.598 52.2085H259.152L258.733 51.6905C257.648 50.3755 256.936 49.3525 256.599 48.6195C256.262 47.8885 256.094 47.0295 256.094 46.0425C256.094 44.3655 256.776 41.8655 258.141 38.5445L257.056 37.4095C256.842 37.9365 256.57 38.7085 256.242 39.7285L255.428 42.2435C254.984 43.5925 254.762 44.7105 254.762 45.5985C254.762 46.5195 254.918 47.2835 255.23 47.8925C255.543 48.5005 256.201 49.3305 257.204 50.3835C257.302 50.4825 257.45 50.6395 257.648 50.8525H245.315C247.667 49.6355 249.529 47.9995 250.902 45.9445C252.274 43.8885 253.635 40.7145 254.984 36.4235L255.082 36.0775C254.211 35.3385 252.953 34.8855 251.309 34.7215C252.213 33.3735 252.912 31.9675 253.405 30.5035C253.635 30.7175 253.775 30.8495 253.824 30.8985L254.934 31.9345C255.312 32.2965 255.765 32.6655 256.291 33.0445L256.735 31.9595L256.439 31.7125C255.617 30.9885 254.926 30.4055 254.367 29.9605L254.145 29.7885L254.54 29.2455C255.411 29.8215 256.25 30.4885 257.056 31.2435L260.41 22.0195L257.796 19.2065H269.166Z" fill="#E5001D"/>
<path d="M312.724 50.655L311.614 52.875H285.864L285.247 52.209H311.343L312.058 50.655C310.249 48.435 308.802 45.961 307.717 43.231L307.618 42.96L308.407 43.256L308.58 43.675C309.682 46.108 310.997 48.353 312.527 50.408L312.724 50.655ZM284.557 19.207H296.346L292.869 22.587V48.953H293.066L293.954 49.027H294.176V22.833L296.84 20.145L297.185 20.687L294.793 23.13V49.027C295.532 49.093 296.239 49.126 296.914 49.126C299.528 49.126 301.505 48.546 302.846 47.386C304.186 46.227 305.086 44.316 305.546 41.652C307.092 46.141 308.679 49.208 310.307 50.852H284.557L287.96 48.065V22.34L284.557 19.207Z" fill="#E5001D"/>
<path d="M340.373 50.655L339.263 52.875H313.513L312.896 52.209H338.992L339.707 50.655C337.898 48.435 336.451 45.961 335.366 43.231L335.267 42.96L336.056 43.256L336.229 43.675C337.331 46.108 338.646 48.353 340.176 50.408L340.373 50.655ZM312.206 19.207H323.995L320.518 22.587V48.953H320.715L321.603 49.027H321.825V22.833L324.489 20.145L324.834 20.687L322.442 23.13V49.027C323.181 49.093 323.888 49.126 324.563 49.126C327.177 49.126 329.154 48.546 330.495 47.386C331.835 46.227 332.735 44.316 333.195 41.652C334.741 46.141 336.328 49.208 337.956 50.852H312.206L315.609 48.065V22.34L312.206 19.207Z" fill="#E5001D"/>
<path d="M375.446 12.0056V13.0166L375.199 13.2636C373.818 14.5786 372.63 15.8946 371.636 17.2096C370.64 18.5256 369.165 20.7366 367.208 23.8446L358.28 37.9026V47.5716L362.67 52.8746H347.23L346.934 52.2086H361.363L357.614 47.5716V37.7306L366.715 23.3756L368.145 21.1076C370.694 17.0456 373.128 14.0116 375.446 12.0056ZM374.336 10.5256L374.484 10.7236L374.237 10.9936C371.294 14.0526 368.869 17.1596 366.962 20.3176C366.221 21.5176 365.695 22.3726 365.383 22.8826L356.208 37.5586V47.5716L359.784 50.8526H347.772L351.324 47.5716V37.5586L345.404 28.4566L344.122 26.4096C342.954 24.5846 341.996 23.2526 341.248 22.4136C340.5 21.5746 339.394 20.5806 337.931 19.4296L337.659 19.2066H350.116L347.057 22.3896L355.27 34.7716L356.06 33.5136L348.734 22.3896L351.324 19.9226L351.842 20.3176L349.598 22.3896L356.43 32.9216L361.955 24.2146C363.549 21.6826 364.347 19.7906 364.347 18.5416C364.347 17.4896 363.648 16.2886 362.251 14.9406C367.035 13.7896 370.965 12.3666 374.04 10.6736L374.336 10.5256Z" fill="#E5001D"/>
<path d="M420.682 49.0759C420.336 50.1289 419.674 51.0159 418.696 51.7399C417.718 52.4639 416.686 52.8249 415.601 52.8249C414.072 52.8249 412.765 52.3649 411.679 51.4439V51.2469C412.765 51.8889 413.883 52.2089 415.034 52.2089C417.105 52.2089 418.75 51.1479 419.967 49.0269L420.065 48.8539L420.682 49.0759ZM416.267 38.9389C414.392 40.8959 413.085 42.5979 412.345 44.0449L412.271 44.2419L412.468 44.4649C413.866 46.0759 415.148 46.8819 416.316 46.8819C416.563 46.8819 416.859 46.8319 417.204 46.7329V46.9299C416.776 47.1779 416.333 47.3009 415.872 47.3009C414.343 47.3009 412.945 46.2809 411.679 44.2419C412.879 42.0219 414.252 40.1319 415.798 38.5689L416.267 38.9389ZM403.589 27.9139C405.365 26.9939 406.253 25.5789 406.253 23.6719C406.253 22.6359 405.944 21.7719 405.328 21.0819C404.712 20.3909 403.943 20.0459 403.022 20.0459C401.18 20.0459 400.259 21.1229 400.259 23.2769C400.259 24.9869 400.744 26.8119 401.715 28.7529C401.829 28.6869 401.912 28.6459 401.961 28.6299L402.603 28.3829C402.652 28.3669 402.766 28.3169 402.948 28.2339C402.142 26.3279 401.739 24.8139 401.739 23.6959C401.739 22.0529 402.397 21.2299 403.713 21.2299C404.239 21.2299 404.797 21.5019 405.39 22.0439L405.217 22.2909L405.02 22.1679C404.576 21.9039 404.164 21.7719 403.786 21.7719C402.766 21.7719 402.257 22.4469 402.257 23.7949C402.257 24.9629 402.701 26.3359 403.589 27.9139ZM399.026 33.9569C396.066 35.6009 394.587 37.9769 394.587 41.0849C394.587 42.7789 395.014 44.2219 395.869 45.4139C396.724 46.6059 397.932 47.4399 399.495 47.9169V48.2379C397.851 48.0079 396.514 47.2509 395.487 45.9689C394.459 44.6859 393.945 43.1399 393.945 41.3319C393.945 37.9119 395.549 35.2399 398.755 33.3159L398.632 32.9949C398.516 32.7159 398.41 32.4359 398.311 32.1569C396.42 32.9129 394.948 34.0809 393.896 35.6589C392.843 37.2369 392.317 39.0469 392.317 41.0849C392.317 43.2559 392.984 45.0639 394.315 46.5119C395.647 47.9589 397.316 48.6809 399.322 48.6809C401.558 48.6809 403.589 47.7119 405.414 45.7709C403.277 42.8449 401.147 38.9059 399.026 33.9569ZM397.719 29.9859C397.275 28.3749 397.053 26.8619 397.053 25.4479C397.053 23.2439 397.604 21.4759 398.705 20.1449C399.807 18.8119 401.262 18.1459 403.071 18.1459C404.748 18.1459 406.175 18.6979 407.35 19.7999C408.526 20.9009 409.114 22.2249 409.114 23.7699C409.114 26.9279 406.869 29.2139 402.38 30.6269C404.123 35.0839 405.957 38.7009 407.881 41.4789C408.144 40.9369 408.349 40.3199 408.497 39.6299C406.787 37.0149 405.381 34.3269 404.28 31.5639L404.625 31.4169C408.555 29.8219 410.52 27.4209 410.52 24.2149C410.52 23.0629 410.125 21.8469 409.336 20.5639L409.139 20.2439C410.454 21.3939 411.112 22.8419 411.112 24.5849C411.112 27.7089 409.122 30.1829 405.143 32.0089C406.294 34.7379 407.453 36.9989 408.621 38.7909C408.686 38.0019 408.719 37.2209 408.719 36.4479C408.719 35.2309 408.645 34.2279 408.497 33.4389L408.744 33.5869C410.947 35.2809 413.027 36.4809 414.984 37.1879C413.011 39.1779 411.243 41.5539 409.682 44.3159C411.605 47.0289 413.471 48.3859 415.28 48.3859C415.987 48.3859 416.588 48.1799 417.081 47.7689L417.525 47.3749C417.755 47.1939 417.968 47.1029 418.166 47.1029C418.725 47.1029 419.005 47.3339 419.005 47.7939C419.005 48.4839 418.462 49.1709 417.377 49.8529C416.292 50.5359 415.214 50.8769 414.146 50.8769C412.485 50.8769 410.693 50.2609 408.769 49.0269C406.417 51.5759 403.408 52.8489 399.742 52.8489C396.338 52.8489 393.427 51.7489 391.01 49.5449L391.158 49.3229C393.805 51.2309 396.666 52.1839 399.742 52.1839C403.178 52.1839 405.99 50.9919 408.177 48.6079C407.848 48.3779 407.543 48.1389 407.264 47.8919C404.88 49.7339 402.183 50.6549 399.174 50.6549C395.672 50.6549 392.806 49.7049 390.579 47.8059C388.35 45.9069 387.237 43.4699 387.237 40.4929C387.237 37.9609 388.034 35.8729 389.629 34.2279C391.224 32.5839 393.773 31.2109 397.275 30.1089L397.719 29.9859Z" fill="#E5001D"/>
<path d="M465.744 21.156L465.473 21.625C463.681 24.683 462.25 27.47 461.181 29.986L460.515 29.665L460.787 29.049C461.609 27.322 462.332 25.891 462.957 24.757L464.93 21.255L465.177 20.811L465.744 21.156ZM456.791 24.239C455.294 23.039 453.881 22.438 452.549 22.438C448.29 22.438 446.161 26.5 446.161 34.623C446.161 38.322 446.654 41.402 447.64 43.86C448.627 46.318 450.016 47.909 451.809 48.633V48.879C449.868 48.484 448.318 46.992 447.159 44.402C446 41.812 445.42 38.537 445.42 34.574C445.42 26.072 447.755 21.822 452.425 21.822C454.004 21.822 455.459 22.521 456.791 23.919V24.239ZM464.832 41.183C464.568 45.261 463.43 48.365 461.416 50.495C459.401 52.625 456.585 53.688 452.968 53.688C450.222 53.688 447.665 52.842 445.297 51.148V50.951C447.402 52.332 449.942 53.022 452.919 53.022C456.174 53.022 458.829 51.978 460.885 49.89C461.888 48.871 462.628 47.728 463.105 46.462C463.582 45.196 463.902 43.518 464.067 41.43L464.116 40.863L464.832 41.183ZM463.944 19.972L463.673 20.441C462.192 23.022 460.91 25.604 459.825 28.185L459.603 28.753L459.282 28.58C458.904 26.081 458.024 24.099 456.643 22.635C455.262 21.173 453.593 20.441 451.636 20.441C449.548 20.441 447.805 21.353 446.407 23.178C444.647 25.448 443.768 29.295 443.768 34.721C443.768 39.391 444.578 43.05 446.197 45.697C447.817 48.344 450.066 49.669 452.943 49.669C455.245 49.669 457.083 48.9 458.456 47.362C459.828 45.825 460.647 43.626 460.91 40.764C460.976 40.074 461.255 39.728 461.749 39.728C462.39 39.728 462.711 40.263 462.711 41.332C462.711 42.927 462.348 44.579 461.625 46.29C460.096 49.907 456.939 51.716 452.154 51.716C447.878 51.716 444.483 50.216 441.968 47.215C439.452 44.214 438.194 40.156 438.194 35.042C438.194 30.323 439.501 26.369 442.115 23.178C444.73 19.988 447.977 18.393 451.858 18.393C453.699 18.393 455.796 18.846 458.147 19.75C459.381 20.227 460.4 20.466 461.206 20.466C462.077 20.466 462.859 20.227 463.549 19.75L463.944 19.972Z" fill="#E5001D"/>
<path d="M486.537 24.7078L486.118 24.4608C484.539 23.5898 483.092 23.1538 481.777 23.1538C477.452 23.1538 475.29 27.4038 475.29 35.9048C475.29 42.1208 476.63 46.2398 479.31 48.2628L479.088 48.5098C477.444 47.3418 476.272 45.8088 475.574 43.9088C474.875 42.0098 474.525 39.4408 474.525 36.2008C474.525 27.0748 476.926 22.5128 481.727 22.5128C483.914 22.5128 485.517 23.2438 486.537 24.7078ZM489.127 20.1458C491.478 21.2788 493.336 23.2198 494.701 25.9658C496.066 28.7118 496.748 31.8858 496.748 35.4858C496.748 40.7808 495.404 45.0568 492.715 48.3118C490.027 51.5668 486.496 53.1948 482.122 53.1948C479.327 53.1948 476.712 52.2498 474.279 50.3588V50.2348C476.317 51.7318 478.874 52.4798 481.949 52.4798C486.077 52.4798 489.464 50.9268 492.111 47.8178C494.758 44.7108 496.082 40.7398 496.082 35.9048C496.082 32.3048 495.478 29.1558 494.269 26.4588C493.061 23.7628 491.347 21.7478 489.127 20.4158V20.1458ZM481.259 21.0088C475.701 21.0088 472.922 25.8918 472.922 35.6588C472.922 44.6868 475.66 49.1998 481.135 49.1998C483.684 49.1998 485.624 48.0038 486.956 45.6108C488.288 43.2188 488.954 39.7208 488.954 35.1158C488.954 29.9038 488.313 26.2698 487.03 24.2148C485.682 22.0768 483.758 21.0088 481.259 21.0088ZM481.259 18.8868C485.254 18.8868 488.449 20.3998 490.841 23.4258C493.234 26.4508 494.43 30.4958 494.43 35.5608C494.43 40.3448 493.25 44.1598 490.89 47.0048C488.53 49.8498 485.361 51.2708 481.382 51.2708C478.241 51.2708 475.446 50.2688 472.996 48.2628C469.395 45.3028 467.595 40.9208 467.595 35.1158C467.595 30.1498 468.828 26.2038 471.294 23.2768C473.761 20.3508 477.082 18.8868 481.259 18.8868Z" fill="#E5001D"/>
<path d="M507.6 45.8699C508.504 46.7089 508.957 47.7619 508.957 49.0269C508.957 50.1449 508.541 51.1239 507.711 51.9619C506.881 52.8009 505.915 53.2199 504.813 53.2199C503.481 53.2199 502.404 52.7259 501.582 51.7399L501.755 51.5669C502.807 52.1929 503.761 52.5049 504.616 52.5049C505.652 52.5049 506.535 52.1469 507.267 51.4319C507.999 50.7169 508.365 49.8659 508.365 48.8789C508.365 47.9419 508.036 46.9969 507.378 46.0429L507.6 45.8699ZM503.555 44.8339C504.443 44.8339 505.199 45.1459 505.825 45.7709C506.449 46.3959 506.762 47.1519 506.762 48.0409C506.762 48.9119 506.449 49.6599 505.825 50.2849C505.199 50.9099 504.443 51.2229 503.555 51.2229C502.684 51.2229 501.935 50.9099 501.311 50.2849C500.686 49.6599 500.374 48.9119 500.374 48.0409C500.374 47.1519 500.686 46.3959 501.311 45.7709C501.935 45.1459 502.684 44.8339 503.555 44.8339Z" fill="#E5001D"/>
</g>
<defs>
<clipPath id="clip0_2041_30">
<rect width="43" height="64" fill="white"/>
</clipPath>
<clipPath id="clip1_2041_30">
<rect width="446" height="44" fill="white" transform="translate(63 10)"/>
</clipPath>
</defs>
</svg>
