<svg width="116" height="172" viewBox="0 0 116 172" fill="none" xmlns="http://www.w3.org/2000/svg">
<path d="M113.632 2.4968H2.46529V121.698L13.3523 133.474L46.1413 133.517C46.3693 133.516 46.4803 133.659 46.6323 133.794C46.7853 133.93 48.9293 136.867 48.9293 137.066V150.226H16.9613L14.1863 154.558C14.6283 157.095 13.4923 163.684 14.3553 165.705C14.4893 166.018 16.9993 169.515 17.2433 169.73C17.4583 169.921 17.5933 170.05 17.9113 170.022L47.0103 169.919L50.2623 165.296L50.0813 151.379H60.8323L61.0333 165.489L64.0403 170.017L103.896 169.974L113.632 158.391V2.4968ZM99.8083 0.767792L115.36 0.9608V158.967C111.836 162.672 108.874 167.411 105.371 171.064C105.074 171.373 104.758 171.846 104.316 171.93L62.3123 171.937L59.2963 166.843V153.492H51.8093V166.651C50.6983 167.933 49.6663 170.309 48.5433 171.451C48.3393 171.658 48.2053 171.908 47.8683 171.929L15.6473 171.711C15.4883 171.677 15.4363 171.546 15.3493 171.434C15.0613 171.064 13.1153 167.335 12.9823 166.886C12.6493 165.756 12.6233 156.162 12.8453 154.752L15.6173 149.073H47.3933V137.066C47.3933 136.907 45.4223 134.992 45.0033 135.04L12.3893 135.014L0.929291 121.795V0.767792H99.8083Z" fill="white"/>
<path d="M110.752 5.37869H5.53728V120.162L14.3123 130.442L47.3893 130.731L51.9183 135.224L51.8923 148.894L52.2883 149.073L59.2973 148.882L59.1443 135.377L64.4233 130.48L95.6543 130.657C95.9223 130.748 96.3943 132.232 96.5483 132.645C97.0013 133.862 97.9803 136.257 98.0883 137.443C98.2983 139.727 98.4023 146.453 98.0683 148.581C97.8583 149.919 96.2403 152.023 95.9683 153.492H63.7123V165.498C63.7123 165.684 64.6643 166.976 64.8003 167.331L102.397 167.32L102.886 167.042L110.752 157.43V5.37869ZM112.48 3.64969V158.006L103.32 168.82L64.9643 168.857C64.7363 168.858 64.6253 168.714 64.4733 168.579C64.2303 168.363 62.2353 165.373 62.1853 165.106C61.7233 162.619 62.2633 157.748 62.1843 154.925C62.1533 153.814 61.8053 152.564 61.9843 151.379H93.7603C94.4133 150.429 95.7423 149.04 96.1743 148.031C96.4823 147.313 96.5043 138.115 96.3353 136.892C96.2763 136.461 95.0053 133.034 94.7813 132.684C94.7043 132.562 94.6753 132.418 94.5023 132.386L64.5813 132.364C63.6833 132.536 61.6083 135.916 60.7243 136.597C60.5913 136.871 60.8323 136.999 60.8323 137.066V150.226H50.0813V136.683C50.0813 136.448 47.6463 133.103 47.3913 132.843C47.1873 132.636 47.0533 132.386 46.7163 132.365L13.7363 132.363L3.61728 121.315V3.64969H112.48Z" fill="white"/>
<path d="M47.3928 153.492H18.4968C17.9698 154.289 17.3318 155.53 17.2398 156.46C17.0378 158.488 17.3088 160.975 17.4388 163.003C17.5328 164.465 17.1068 165.987 18.3358 167.1C27.4678 167.369 36.6118 167.328 45.7668 167.338L46.0108 167.283C46.1018 166.819 47.3928 165.351 47.3928 165.114V153.492ZM48.9288 151.379V164.538C48.9288 164.598 49.1048 164.75 49.1038 164.925L48.9808 165.346C48.2798 165.967 46.8878 168.71 46.1418 168.856L18.1448 168.829C16.7428 167.055 15.4938 165.965 15.3218 163.585C15.1198 160.796 15.4788 157.759 15.3378 154.941L17.4408 151.379H48.9288Z" fill="white"/>
<path d="M93.0885 148.881C93.2475 148.235 93.5885 147.751 93.6645 147.057C93.8785 145.122 93.8775 140.347 93.6655 138.41C93.6065 137.871 92.7975 135.221 92.3855 135.081L66.4925 135.046C65.5205 135.141 64.8615 136.129 64.1895 136.785C64.0265 136.944 63.7125 136.945 63.7125 136.971V148.881H93.0885ZM61.9845 150.226V136.875C62.8005 136.271 64.2545 133.69 65.1565 133.518C74.7025 133.381 84.1915 133.749 93.7295 133.736C94.0395 133.842 95.1185 136.623 95.1885 137.079C95.3585 138.191 95.3105 146.975 95.0225 147.647C94.7025 148.396 93.6755 149.509 93.1845 150.226H61.9845Z" fill="white"/>
<path d="M87.3285 18.2498V30.5448L81.8565 26.8948H61.7925C63.2665 30.0668 62.6955 33.3598 62.3685 36.6918H82.4325L91.1685 32.2728V46.2008C91.1685 46.2708 90.2215 46.9648 90.0165 46.8738V33.8108L83.0085 37.4608H61.2165C61.5005 34.4408 62.4365 31.0518 61.2225 28.1378C60.6285 26.7118 60.4945 26.7988 58.9125 26.8948C59.7395 30.9248 59.5575 34.7728 58.9125 38.8058H82.4325L87.3285 35.5388V47.8338L82.0485 44.3758H61.2165C61.2005 46.1048 62.7495 47.3928 64.2885 47.8368C63.8665 48.7678 63.2895 48.2388 62.6525 47.8388C61.3635 47.0278 60.3335 45.9418 60.0435 44.3978L58.3355 44.3758C58.1525 46.6968 60.1935 48.2968 62.1765 48.9888C62.3935 49.2178 62.1595 49.3358 61.9345 49.4218C61.2185 49.6978 57.1805 47.9448 56.3545 47.4158C55.1095 46.6168 54.4075 45.7038 53.7925 44.3678L32.5255 44.3888L26.6565 47.8338V35.1548L33.0795 38.8138L53.4255 38.8158L53.7285 37.4608H33.4725L28.3855 34.5758C28.4795 34.2628 28.9565 34.0148 29.2505 34.0158C29.9675 34.0188 33.0545 36.4398 34.0575 36.6838L53.7025 36.6658C54.5045 33.4898 54.5095 30.0858 53.7035 26.9198L32.1395 26.9048L26.6565 30.1598V17.6738L32.6195 21.2168L82.6675 21.1738L87.3285 18.2498Z" fill="white"/>
<path d="M87.3285 102.008L83.1725 98.7646L82.4845 98.5896L59.7555 105.062L59.4895 105.463L68.8125 109.68L82.6675 109.543L91.1685 105.274V119.297L90.0165 119.873V107.003L82.8045 110.257L68.2205 110.273C66.0015 109.926 59.3775 105.522 57.6875 105.662C57.1765 105.705 56.6235 106.154 56.0315 106.043L56.2785 106.471L67.8355 111.81L82.0365 111.793L87.3285 108.732V120.834L81.9445 117.288L32.0865 117.333L26.6565 120.642V108.155L32.8965 111.805H61.4085L58.0535 110.264L33.2915 110.258L28.1945 107.384C28.2135 107.034 28.9815 106.976 29.2325 107.002C30.1235 107.096 33.3335 109.693 33.8565 109.693H56.9925L39.0745 101.014C35.3565 99.4096 30.5165 98.2086 27.6485 101.943C27.2805 102.422 27.4475 103.165 26.6565 102.968V88.7526C27.4215 88.5766 27.5315 89.5786 27.9185 90.0836C32.5555 96.1336 41.8035 99.1506 48.4125 102.53L82.0585 92.6046L87.3285 88.1756V102.008Z" fill="white"/>
<path d="M51.5773 59.6091C46.2173 59.8031 30.6063 60.2731 30.1123 67.7201C29.8323 71.9491 34.2403 74.1161 37.6453 75.1641C46.9403 78.0261 70.0913 78.4281 78.9493 74.5091C84.0633 72.2471 86.6123 66.9871 81.0543 63.4281C74.6143 59.3051 59.2033 59.3321 51.5773 59.6091ZM53.4973 53.6541C62.5463 53.2411 86.6943 54.2501 88.0763 66.5851C89.5433 79.6761 68.9653 82.6591 59.7783 82.9911C50.5813 83.3241 29.9243 82.1151 26.6033 71.2281C22.4113 57.4891 44.3583 54.0701 53.4973 53.6541Z" fill="white"/>
<path d="M90.0165 100.663V85.1019L83.0185 90.8759L48.4475 100.777C44.1025 98.2739 31.5115 93.7089 30.2445 88.5239C30.0305 87.6469 30.0195 87.3319 31.0715 87.4069C31.5315 90.8109 35.4165 93.2069 38.1725 94.8079C41.4515 96.7119 45.0965 98.2639 48.4455 100.067L81.9515 90.5759L91.1685 82.9889V99.9899C91.1685 100.085 90.4355 100.627 90.3005 100.66L90.0165 100.663Z" fill="white"/>
<path d="M91.1685 29.0076L90.0165 29.3916V16.3286L83.0515 19.8296L33.8475 19.9876L28.3855 17.0016C28.4885 16.7846 29.1685 16.5306 29.4095 16.5696C30.4175 16.7356 32.9145 19.1276 34.2365 19.2146H82.2455L91.1685 14.7916V29.0076Z" fill="white"/>
<path d="M87.5206 74.7263C92.9956 68.1583 90.6026 61.5663 83.8566 57.3593C71.4766 49.6393 42.9406 49.6803 30.8206 57.8593C30.1336 58.3223 29.3366 59.3873 28.5776 59.2653C30.6106 57.0193 33.3996 55.5093 36.2086 54.4143C48.9386 49.4463 72.9566 49.5983 84.8916 56.7073C91.3056 60.5293 94.6476 67.4793 88.8696 73.6773C88.6976 73.8623 87.7296 74.9333 87.5206 74.7263Z" fill="white"/>
<path d="M36.64 62.6267L34.878 65.1847C32.609 69.7077 36.784 71.8357 40.482 72.9027C49.316 75.4517 70.287 75.4457 78.878 72.1327C80.199 71.6227 81.361 70.8277 82.623 70.3087L82.719 70.6907C79.758 72.6657 76.654 73.8247 73.156 74.4757C64.747 76.0407 44.523 76.1877 36.895 72.4567C32.042 70.0837 31.591 64.9127 36.64 62.6267Z" fill="white"/>
</svg>
